<?xml version="1.0" encoding="UTF-8" standalone="no"?>
<!DOCTYPE svg PUBLIC "-//W3C//DTD SVG 1.1//EN"
 "http://www.w3.org/Graphics/SVG/1.1/DTD/svg11.dtd">
<!-- Generated by graphviz version 2.38.0 (20140413.2041)
 -->
<!-- Title: G Pages: 1 -->
<svg width="208pt" height="6957pt"
 viewBox="0.00 0.00 208.00 6957.00" xmlns="http://www.w3.org/2000/svg" xmlns:xlink="http://www.w3.org/1999/xlink">
<g id="graph0" class="graph" transform="scale(1 1) rotate(0) translate(4 6953)">
<title>G</title>
<polygon fill="white" stroke="none" points="-4,4 -4,-6953 204,-6953 204,4 -4,4"/>
<!-- nodo1 -->
<g id="node1" class="node"><title>nodo1</title>
<polygon fill="white" stroke="black" points="82,-6949 44.1282,-6931 82,-6913 119.872,-6931 82,-6949"/>
<polyline fill="none" stroke="black" points="54.9663,-6936.15 54.9663,-6925.85 "/>
<polyline fill="none" stroke="black" points="71.1619,-6918.15 92.8381,-6918.15 "/>
<polyline fill="none" stroke="black" points="109.034,-6925.85 109.034,-6936.15 "/>
<polyline fill="none" stroke="black" points="92.8381,-6943.85 71.1619,-6943.85 "/>
<text text-anchor="middle" x="82" y="-6927.3" font-family="Times New Roman,serif" font-size="14.00">start</text>
</g>
<!-- nodo2 -->
<g id="node2" class="node"><title>nodo2</title>
<ellipse fill="none" stroke="black" cx="82" cy="-6859" rx="27" ry="18"/>
</g>
<!-- nodo1&#45;&gt;nodo2 -->
<g id="edge1" class="edge"><title>nodo1&#45;&gt;nodo2</title>
<path fill="none" stroke="black" d="M82,-6912.7C82,-6904.98 82,-6895.71 82,-6887.11"/>
<polygon fill="black" stroke="black" points="85.5001,-6887.1 82,-6877.1 78.5001,-6887.1 85.5001,-6887.1"/>
</g>
<!-- nodo3 -->
<g id="node3" class="node"><title>nodo3</title>
<ellipse fill="none" stroke="black" cx="82" cy="-6787" rx="27" ry="18"/>
</g>
<!-- nodo2&#45;&gt;nodo3 -->
<g id="edge2" class="edge"><title>nodo2&#45;&gt;nodo3</title>
<path fill="none" stroke="black" d="M82,-6840.7C82,-6832.98 82,-6823.71 82,-6815.11"/>
<polygon fill="black" stroke="black" points="85.5001,-6815.1 82,-6805.1 78.5001,-6815.1 85.5001,-6815.1"/>
</g>
<!-- nodo4 -->
<g id="node4" class="node"><title>nodo4</title>
<ellipse fill="none" stroke="black" cx="82" cy="-6715" rx="27" ry="18"/>
</g>
<!-- nodo3&#45;&gt;nodo4 -->
<g id="edge3" class="edge"><title>nodo3&#45;&gt;nodo4</title>
<path fill="none" stroke="black" d="M82,-6768.7C82,-6760.98 82,-6751.71 82,-6743.11"/>
<polygon fill="black" stroke="black" points="85.5001,-6743.1 82,-6733.1 78.5001,-6743.1 85.5001,-6743.1"/>
</g>
<!-- nodo5 -->
<g id="node5" class="node"><title>nodo5</title>
<ellipse fill="none" stroke="black" cx="82" cy="-6643" rx="27" ry="18"/>
</g>
<!-- nodo4&#45;&gt;nodo5 -->
<g id="edge4" class="edge"><title>nodo4&#45;&gt;nodo5</title>
<path fill="none" stroke="black" d="M82,-6696.7C82,-6688.98 82,-6679.71 82,-6671.11"/>
<polygon fill="black" stroke="black" points="85.5001,-6671.1 82,-6661.1 78.5001,-6671.1 85.5001,-6671.1"/>
</g>
<!-- nodo6 -->
<g id="node6" class="node"><title>nodo6</title>
<ellipse fill="none" stroke="black" cx="82" cy="-6571" rx="27" ry="18"/>
</g>
<!-- nodo5&#45;&gt;nodo6 -->
<g id="edge5" class="edge"><title>nodo5&#45;&gt;nodo6</title>
<path fill="none" stroke="black" d="M82,-6624.7C82,-6616.98 82,-6607.71 82,-6599.11"/>
<polygon fill="black" stroke="black" points="85.5001,-6599.1 82,-6589.1 78.5001,-6599.1 85.5001,-6599.1"/>
</g>
<!-- nodo7 -->
<g id="node7" class="node"><title>nodo7</title>
<ellipse fill="none" stroke="black" cx="82" cy="-6499" rx="27" ry="18"/>
</g>
<!-- nodo6&#45;&gt;nodo7 -->
<g id="edge6" class="edge"><title>nodo6&#45;&gt;nodo7</title>
<path fill="none" stroke="black" d="M82,-6552.7C82,-6544.98 82,-6535.71 82,-6527.11"/>
<polygon fill="black" stroke="black" points="85.5001,-6527.1 82,-6517.1 78.5001,-6527.1 85.5001,-6527.1"/>
</g>
<!-- nodo8 -->
<g id="node8" class="node"><title>nodo8</title>
<ellipse fill="none" stroke="black" cx="82" cy="-6427" rx="27" ry="18"/>
</g>
<!-- nodo7&#45;&gt;nodo8 -->
<g id="edge7" class="edge"><title>nodo7&#45;&gt;nodo8</title>
<path fill="none" stroke="black" d="M82,-6480.7C82,-6472.98 82,-6463.71 82,-6455.11"/>
<polygon fill="black" stroke="black" points="85.5001,-6455.1 82,-6445.1 78.5001,-6455.1 85.5001,-6455.1"/>
</g>
<!-- nodo9 -->
<g id="node9" class="node"><title>nodo9</title>
<ellipse fill="none" stroke="black" cx="82" cy="-6355" rx="27" ry="18"/>
</g>
<!-- nodo8&#45;&gt;nodo9 -->
<g id="edge8" class="edge"><title>nodo8&#45;&gt;nodo9</title>
<path fill="none" stroke="black" d="M82,-6408.7C82,-6400.98 82,-6391.71 82,-6383.11"/>
<polygon fill="black" stroke="black" points="85.5001,-6383.1 82,-6373.1 78.5001,-6383.1 85.5001,-6383.1"/>
</g>
<!-- nodo10 -->
<g id="node10" class="node"><title>nodo10</title>
<ellipse fill="none" stroke="black" cx="82" cy="-6283" rx="27" ry="18"/>
</g>
<!-- nodo9&#45;&gt;nodo10 -->
<g id="edge9" class="edge"><title>nodo9&#45;&gt;nodo10</title>
<path fill="none" stroke="black" d="M82,-6336.7C82,-6328.98 82,-6319.71 82,-6311.11"/>
<polygon fill="black" stroke="black" points="85.5001,-6311.1 82,-6301.1 78.5001,-6311.1 85.5001,-6311.1"/>
</g>
<!-- nodo11 -->
<g id="node11" class="node"><title>nodo11</title>
<ellipse fill="none" stroke="black" cx="46" cy="-6211" rx="27" ry="18"/>
</g>
<!-- nodo10&#45;&gt;nodo11 -->
<g id="edge10" class="edge"><title>nodo10&#45;&gt;nodo11</title>
<path fill="none" stroke="black" d="M73.6504,-6265.76C69.2885,-6257.28 63.8531,-6246.71 58.9587,-6237.2"/>
<polygon fill="black" stroke="black" points="61.9904,-6235.44 54.3043,-6228.15 55.7654,-6238.64 61.9904,-6235.44"/>
</g>
<!-- nodo12 -->
<g id="node12" class="node"><title>nodo12</title>
<ellipse fill="none" stroke="black" cx="118" cy="-6211" rx="27" ry="18"/>
</g>
<!-- nodo10&#45;&gt;nodo12 -->
<g id="edge11" class="edge"><title>nodo10&#45;&gt;nodo12</title>
<path fill="none" stroke="black" d="M90.3496,-6265.76C94.7115,-6257.28 100.147,-6246.71 105.041,-6237.2"/>
<polygon fill="black" stroke="black" points="108.235,-6238.64 109.696,-6228.15 102.01,-6235.44 108.235,-6238.64"/>
</g>
<!-- nodo13 -->
<g id="node13" class="node"><title>nodo13</title>
<ellipse fill="none" stroke="black" cx="82" cy="-6139" rx="27" ry="18"/>
</g>
<!-- nodo11&#45;&gt;nodo13 -->
<g id="edge12" class="edge"><title>nodo11&#45;&gt;nodo13</title>
<path fill="none" stroke="black" d="M54.3496,-6193.76C58.7115,-6185.28 64.1469,-6174.71 69.0413,-6165.2"/>
<polygon fill="black" stroke="black" points="72.2346,-6166.64 73.6957,-6156.15 66.0096,-6163.44 72.2346,-6166.64"/>
</g>
<!-- nodo12&#45;&gt;nodo13 -->
<g id="edge13" class="edge"><title>nodo12&#45;&gt;nodo13</title>
<path fill="none" stroke="black" d="M109.65,-6193.76C105.288,-6185.28 99.8531,-6174.71 94.9587,-6165.2"/>
<polygon fill="black" stroke="black" points="97.9904,-6163.44 90.3043,-6156.15 91.7654,-6166.64 97.9904,-6163.44"/>
</g>
<!-- nodo14 -->
<g id="node14" class="node"><title>nodo14</title>
<ellipse fill="none" stroke="black" cx="82" cy="-6067" rx="27" ry="18"/>
</g>
<!-- nodo13&#45;&gt;nodo14 -->
<g id="edge14" class="edge"><title>nodo13&#45;&gt;nodo14</title>
<path fill="none" stroke="black" d="M82,-6120.7C82,-6112.98 82,-6103.71 82,-6095.11"/>
<polygon fill="black" stroke="black" points="85.5001,-6095.1 82,-6085.1 78.5001,-6095.1 85.5001,-6095.1"/>
</g>
<!-- nodo15 -->
<g id="node15" class="node"><title>nodo15</title>
<ellipse fill="none" stroke="black" cx="82" cy="-5995" rx="27" ry="18"/>
</g>
<!-- nodo14&#45;&gt;nodo15 -->
<g id="edge15" class="edge"><title>nodo14&#45;&gt;nodo15</title>
<path fill="none" stroke="black" d="M82,-6048.7C82,-6040.98 82,-6031.71 82,-6023.11"/>
<polygon fill="black" stroke="black" points="85.5001,-6023.1 82,-6013.1 78.5001,-6023.1 85.5001,-6023.1"/>
</g>
<!-- nodo16 -->
<g id="node16" class="node"><title>nodo16</title>
<ellipse fill="none" stroke="black" cx="82" cy="-5923" rx="27" ry="18"/>
</g>
<!-- nodo15&#45;&gt;nodo16 -->
<g id="edge16" class="edge"><title>nodo15&#45;&gt;nodo16</title>
<path fill="none" stroke="black" d="M82,-5976.7C82,-5968.98 82,-5959.71 82,-5951.11"/>
<polygon fill="black" stroke="black" points="85.5001,-5951.1 82,-5941.1 78.5001,-5951.1 85.5001,-5951.1"/>
</g>
<!-- nodo17 -->
<g id="node17" class="node"><title>nodo17</title>
<ellipse fill="none" stroke="black" cx="82" cy="-5851" rx="27" ry="18"/>
</g>
<!-- nodo16&#45;&gt;nodo17 -->
<g id="edge17" class="edge"><title>nodo16&#45;&gt;nodo17</title>
<path fill="none" stroke="black" d="M82,-5904.7C82,-5896.98 82,-5887.71 82,-5879.11"/>
<polygon fill="black" stroke="black" points="85.5001,-5879.1 82,-5869.1 78.5001,-5879.1 85.5001,-5879.1"/>
</g>
<!-- nodo18 -->
<g id="node18" class="node"><title>nodo18</title>
<ellipse fill="none" stroke="black" cx="82" cy="-5779" rx="27" ry="18"/>
</g>
<!-- nodo17&#45;&gt;nodo18 -->
<g id="edge18" class="edge"><title>nodo17&#45;&gt;nodo18</title>
<path fill="none" stroke="black" d="M82,-5832.7C82,-5824.98 82,-5815.71 82,-5807.11"/>
<polygon fill="black" stroke="black" points="85.5001,-5807.1 82,-5797.1 78.5001,-5807.1 85.5001,-5807.1"/>
</g>
<!-- nodo19 -->
<g id="node19" class="node"><title>nodo19</title>
<ellipse fill="none" stroke="black" cx="82" cy="-5707" rx="27" ry="18"/>
</g>
<!-- nodo18&#45;&gt;nodo19 -->
<g id="edge19" class="edge"><title>nodo18&#45;&gt;nodo19</title>
<path fill="none" stroke="black" d="M82,-5760.7C82,-5752.98 82,-5743.71 82,-5735.11"/>
<polygon fill="black" stroke="black" points="85.5001,-5735.1 82,-5725.1 78.5001,-5735.1 85.5001,-5735.1"/>
</g>
<!-- nodo20 -->
<g id="node20" class="node"><title>nodo20</title>
<ellipse fill="none" stroke="black" cx="82" cy="-5635" rx="27" ry="18"/>
</g>
<!-- nodo19&#45;&gt;nodo20 -->
<g id="edge20" class="edge"><title>nodo19&#45;&gt;nodo20</title>
<path fill="none" stroke="black" d="M82,-5688.7C82,-5680.98 82,-5671.71 82,-5663.11"/>
<polygon fill="black" stroke="black" points="85.5001,-5663.1 82,-5653.1 78.5001,-5663.1 85.5001,-5663.1"/>
</g>
<!-- nodo21 -->
<g id="node21" class="node"><title>nodo21</title>
<ellipse fill="none" stroke="black" cx="82" cy="-5563" rx="27" ry="18"/>
</g>
<!-- nodo20&#45;&gt;nodo21 -->
<g id="edge21" class="edge"><title>nodo20&#45;&gt;nodo21</title>
<path fill="none" stroke="black" d="M82,-5616.7C82,-5608.98 82,-5599.71 82,-5591.11"/>
<polygon fill="black" stroke="black" points="85.5001,-5591.1 82,-5581.1 78.5001,-5591.1 85.5001,-5591.1"/>
</g>
<!-- nodo22 -->
<g id="node22" class="node"><title>nodo22</title>
<ellipse fill="none" stroke="black" cx="82" cy="-5491" rx="27" ry="18"/>
</g>
<!-- nodo21&#45;&gt;nodo22 -->
<g id="edge22" class="edge"><title>nodo21&#45;&gt;nodo22</title>
<path fill="none" stroke="black" d="M82,-5544.7C82,-5536.98 82,-5527.71 82,-5519.11"/>
<polygon fill="black" stroke="black" points="85.5001,-5519.1 82,-5509.1 78.5001,-5519.1 85.5001,-5519.1"/>
</g>
<!-- nodo23 -->
<g id="node23" class="node"><title>nodo23</title>
<ellipse fill="none" stroke="black" cx="82" cy="-5419" rx="27" ry="18"/>
</g>
<!-- nodo22&#45;&gt;nodo23 -->
<g id="edge23" class="edge"><title>nodo22&#45;&gt;nodo23</title>
<path fill="none" stroke="black" d="M82,-5472.7C82,-5464.98 82,-5455.71 82,-5447.11"/>
<polygon fill="black" stroke="black" points="85.5001,-5447.1 82,-5437.1 78.5001,-5447.1 85.5001,-5447.1"/>
</g>
<!-- nodo24 -->
<g id="node24" class="node"><title>nodo24</title>
<ellipse fill="none" stroke="black" cx="27" cy="-5347" rx="27" ry="18"/>
</g>
<!-- nodo23&#45;&gt;nodo24 -->
<g id="edge24" class="edge"><title>nodo23&#45;&gt;nodo24</title>
<path fill="none" stroke="black" d="M70.0658,-5402.81C62.7864,-5393.55 53.3374,-5381.52 45.1456,-5371.09"/>
<polygon fill="black" stroke="black" points="47.8413,-5368.86 38.9109,-5363.16 42.337,-5373.18 47.8413,-5368.86"/>
</g>
<!-- nodo27 -->
<g id="node27" class="node"><title>nodo27</title>
<ellipse fill="none" stroke="black" cx="137" cy="-5347" rx="27" ry="18"/>
</g>
<!-- nodo23&#45;&gt;nodo27 -->
<g id="edge26" class="edge"><title>nodo23&#45;&gt;nodo27</title>
<path fill="none" stroke="black" d="M93.9342,-5402.81C101.214,-5393.55 110.663,-5381.52 118.854,-5371.09"/>
<polygon fill="black" stroke="black" points="121.663,-5373.18 125.089,-5363.16 116.159,-5368.86 121.663,-5373.18"/>
</g>
<!-- nodo25 -->
<g id="node25" class="node"><title>nodo25</title>
<ellipse fill="none" stroke="black" cx="27" cy="-5275" rx="27" ry="18"/>
</g>
<!-- nodo24&#45;&gt;nodo25 -->
<g id="edge27" class="edge"><title>nodo24&#45;&gt;nodo25</title>
<path fill="none" stroke="black" d="M27,-5328.7C27,-5320.98 27,-5311.71 27,-5303.11"/>
<polygon fill="black" stroke="black" points="30.5001,-5303.1 27,-5293.1 23.5001,-5303.1 30.5001,-5303.1"/>
</g>
<!-- nodo26 -->
<g id="node26" class="node"><title>nodo26</title>
<ellipse fill="none" stroke="black" cx="46" cy="-5203" rx="27" ry="18"/>
</g>
<!-- nodo25&#45;&gt;nodo26 -->
<g id="edge28" class="edge"><title>nodo25&#45;&gt;nodo26</title>
<path fill="none" stroke="black" d="M31.5994,-5257.05C33.7465,-5249.14 36.3535,-5239.54 38.7561,-5230.69"/>
<polygon fill="black" stroke="black" points="42.2012,-5231.36 41.443,-5220.79 35.4456,-5229.52 42.2012,-5231.36"/>
</g>
<!-- nodo26&#45;&gt;nodo23 -->
<g id="edge25" class="edge"><title>nodo26&#45;&gt;nodo23</title>
<path fill="none" stroke="black" d="M52.3626,-5220.96C55.9909,-5231.25 60.3331,-5244.72 63,-5257 73.0926,-5303.46 78.1383,-5358.7 80.4034,-5390.91"/>
<polygon fill="black" stroke="black" points="76.9121,-5391.16 81.0682,-5400.9 83.8967,-5390.69 76.9121,-5391.16"/>
</g>
<!-- nodo28 -->
<g id="node28" class="node"><title>nodo28</title>
<ellipse fill="none" stroke="black" cx="137" cy="-5275" rx="27" ry="18"/>
</g>
<!-- nodo27&#45;&gt;nodo28 -->
<g id="edge29" class="edge"><title>nodo27&#45;&gt;nodo28</title>
<path fill="none" stroke="black" d="M137,-5328.7C137,-5320.98 137,-5311.71 137,-5303.11"/>
<polygon fill="black" stroke="black" points="140.5,-5303.1 137,-5293.1 133.5,-5303.1 140.5,-5303.1"/>
</g>
<!-- nodo29 -->
<g id="node29" class="node"><title>nodo29</title>
<ellipse fill="none" stroke="black" cx="137" cy="-5203" rx="27" ry="18"/>
</g>
<!-- nodo28&#45;&gt;nodo29 -->
<g id="edge30" class="edge"><title>nodo28&#45;&gt;nodo29</title>
<path fill="none" stroke="black" d="M137,-5256.7C137,-5248.98 137,-5239.71 137,-5231.11"/>
<polygon fill="black" stroke="black" points="140.5,-5231.1 137,-5221.1 133.5,-5231.1 140.5,-5231.1"/>
</g>
<!-- nodo30 -->
<g id="node30" class="node"><title>nodo30</title>
<ellipse fill="none" stroke="black" cx="137" cy="-5131" rx="27" ry="18"/>
</g>
<!-- nodo29&#45;&gt;nodo30 -->
<g id="edge31" class="edge"><title>nodo29&#45;&gt;nodo30</title>
<path fill="none" stroke="black" d="M137,-5184.7C137,-5176.98 137,-5167.71 137,-5159.11"/>
<polygon fill="black" stroke="black" points="140.5,-5159.1 137,-5149.1 133.5,-5159.1 140.5,-5159.1"/>
</g>
<!-- nodo31 -->
<g id="node31" class="node"><title>nodo31</title>
<ellipse fill="none" stroke="black" cx="137" cy="-5059" rx="27" ry="18"/>
</g>
<!-- nodo30&#45;&gt;nodo31 -->
<g id="edge32" class="edge"><title>nodo30&#45;&gt;nodo31</title>
<path fill="none" stroke="black" d="M137,-5112.7C137,-5104.98 137,-5095.71 137,-5087.11"/>
<polygon fill="black" stroke="black" points="140.5,-5087.1 137,-5077.1 133.5,-5087.1 140.5,-5087.1"/>
</g>
<!-- nodo32 -->
<g id="node32" class="node"><title>nodo32</title>
<ellipse fill="none" stroke="black" cx="137" cy="-4987" rx="27" ry="18"/>
</g>
<!-- nodo31&#45;&gt;nodo32 -->
<g id="edge33" class="edge"><title>nodo31&#45;&gt;nodo32</title>
<path fill="none" stroke="black" d="M137,-5040.7C137,-5032.98 137,-5023.71 137,-5015.11"/>
<polygon fill="black" stroke="black" points="140.5,-5015.1 137,-5005.1 133.5,-5015.1 140.5,-5015.1"/>
</g>
<!-- nodo33 -->
<g id="node33" class="node"><title>nodo33</title>
<ellipse fill="none" stroke="black" cx="137" cy="-4915" rx="27" ry="18"/>
</g>
<!-- nodo32&#45;&gt;nodo33 -->
<g id="edge34" class="edge"><title>nodo32&#45;&gt;nodo33</title>
<path fill="none" stroke="black" d="M137,-4968.7C137,-4960.98 137,-4951.71 137,-4943.11"/>
<polygon fill="black" stroke="black" points="140.5,-4943.1 137,-4933.1 133.5,-4943.1 140.5,-4943.1"/>
</g>
<!-- nodo34 -->
<g id="node34" class="node"><title>nodo34</title>
<ellipse fill="none" stroke="black" cx="137" cy="-4843" rx="27" ry="18"/>
</g>
<!-- nodo33&#45;&gt;nodo34 -->
<g id="edge35" class="edge"><title>nodo33&#45;&gt;nodo34</title>
<path fill="none" stroke="black" d="M137,-4896.7C137,-4888.98 137,-4879.71 137,-4871.11"/>
<polygon fill="black" stroke="black" points="140.5,-4871.1 137,-4861.1 133.5,-4871.1 140.5,-4871.1"/>
</g>
<!-- nodo35 -->
<g id="node35" class="node"><title>nodo35</title>
<ellipse fill="none" stroke="black" cx="137" cy="-4771" rx="27" ry="18"/>
</g>
<!-- nodo34&#45;&gt;nodo35 -->
<g id="edge36" class="edge"><title>nodo34&#45;&gt;nodo35</title>
<path fill="none" stroke="black" d="M137,-4824.7C137,-4816.98 137,-4807.71 137,-4799.11"/>
<polygon fill="black" stroke="black" points="140.5,-4799.1 137,-4789.1 133.5,-4799.1 140.5,-4799.1"/>
</g>
<!-- nodo36 -->
<g id="node36" class="node"><title>nodo36</title>
<ellipse fill="none" stroke="black" cx="137" cy="-4699" rx="27" ry="18"/>
</g>
<!-- nodo35&#45;&gt;nodo36 -->
<g id="edge37" class="edge"><title>nodo35&#45;&gt;nodo36</title>
<path fill="none" stroke="black" d="M137,-4752.7C137,-4744.98 137,-4735.71 137,-4727.11"/>
<polygon fill="black" stroke="black" points="140.5,-4727.1 137,-4717.1 133.5,-4727.1 140.5,-4727.1"/>
</g>
<!-- nodo37 -->
<g id="node37" class="node"><title>nodo37</title>
<ellipse fill="none" stroke="black" cx="137" cy="-4627" rx="27" ry="18"/>
</g>
<!-- nodo36&#45;&gt;nodo37 -->
<g id="edge38" class="edge"><title>nodo36&#45;&gt;nodo37</title>
<path fill="none" stroke="black" d="M137,-4680.7C137,-4672.98 137,-4663.71 137,-4655.11"/>
<polygon fill="black" stroke="black" points="140.5,-4655.1 137,-4645.1 133.5,-4655.1 140.5,-4655.1"/>
</g>
<!-- nodo38 -->
<g id="node38" class="node"><title>nodo38</title>
<ellipse fill="none" stroke="black" cx="137" cy="-4555" rx="27" ry="18"/>
</g>
<!-- nodo37&#45;&gt;nodo38 -->
<g id="edge39" class="edge"><title>nodo37&#45;&gt;nodo38</title>
<path fill="none" stroke="black" d="M137,-4608.7C137,-4600.98 137,-4591.71 137,-4583.11"/>
<polygon fill="black" stroke="black" points="140.5,-4583.1 137,-4573.1 133.5,-4583.1 140.5,-4583.1"/>
</g>
<!-- nodo39 -->
<g id="node39" class="node"><title>nodo39</title>
<ellipse fill="none" stroke="black" cx="137" cy="-4483" rx="27" ry="18"/>
</g>
<!-- nodo38&#45;&gt;nodo39 -->
<g id="edge40" class="edge"><title>nodo38&#45;&gt;nodo39</title>
<path fill="none" stroke="black" d="M137,-4536.7C137,-4528.98 137,-4519.71 137,-4511.11"/>
<polygon fill="black" stroke="black" points="140.5,-4511.1 137,-4501.1 133.5,-4511.1 140.5,-4511.1"/>
</g>
<!-- nodo40 -->
<g id="node40" class="node"><title>nodo40</title>
<ellipse fill="none" stroke="black" cx="137" cy="-4411" rx="27" ry="18"/>
</g>
<!-- nodo39&#45;&gt;nodo40 -->
<g id="edge41" class="edge"><title>nodo39&#45;&gt;nodo40</title>
<path fill="none" stroke="black" d="M137,-4464.7C137,-4456.98 137,-4447.71 137,-4439.11"/>
<polygon fill="black" stroke="black" points="140.5,-4439.1 137,-4429.1 133.5,-4439.1 140.5,-4439.1"/>
</g>
<!-- nodo41 -->
<g id="node41" class="node"><title>nodo41</title>
<ellipse fill="none" stroke="black" cx="137" cy="-4339" rx="27" ry="18"/>
</g>
<!-- nodo40&#45;&gt;nodo41 -->
<g id="edge42" class="edge"><title>nodo40&#45;&gt;nodo41</title>
<path fill="none" stroke="black" d="M137,-4392.7C137,-4384.98 137,-4375.71 137,-4367.11"/>
<polygon fill="black" stroke="black" points="140.5,-4367.1 137,-4357.1 133.5,-4367.1 140.5,-4367.1"/>
</g>
<!-- nodo42 -->
<g id="node42" class="node"><title>nodo42</title>
<ellipse fill="none" stroke="black" cx="137" cy="-4267" rx="27" ry="18"/>
</g>
<!-- nodo41&#45;&gt;nodo42 -->
<g id="edge43" class="edge"><title>nodo41&#45;&gt;nodo42</title>
<path fill="none" stroke="black" d="M137,-4320.7C137,-4312.98 137,-4303.71 137,-4295.11"/>
<polygon fill="black" stroke="black" points="140.5,-4295.1 137,-4285.1 133.5,-4295.1 140.5,-4295.1"/>
</g>
<!-- nodo43 -->
<g id="node43" class="node"><title>nodo43</title>
<ellipse fill="none" stroke="black" cx="137" cy="-4195" rx="27" ry="18"/>
</g>
<!-- nodo42&#45;&gt;nodo43 -->
<g id="edge44" class="edge"><title>nodo42&#45;&gt;nodo43</title>
<path fill="none" stroke="black" d="M137,-4248.7C137,-4240.98 137,-4231.71 137,-4223.11"/>
<polygon fill="black" stroke="black" points="140.5,-4223.1 137,-4213.1 133.5,-4223.1 140.5,-4223.1"/>
</g>
<!-- nodo44 -->
<g id="node44" class="node"><title>nodo44</title>
<ellipse fill="none" stroke="black" cx="137" cy="-4123" rx="27" ry="18"/>
</g>
<!-- nodo43&#45;&gt;nodo44 -->
<g id="edge45" class="edge"><title>nodo43&#45;&gt;nodo44</title>
<path fill="none" stroke="black" d="M137,-4176.7C137,-4168.98 137,-4159.71 137,-4151.11"/>
<polygon fill="black" stroke="black" points="140.5,-4151.1 137,-4141.1 133.5,-4151.1 140.5,-4151.1"/>
</g>
<!-- nodo45 -->
<g id="node45" class="node"><title>nodo45</title>
<ellipse fill="none" stroke="black" cx="137" cy="-4051" rx="27" ry="18"/>
</g>
<!-- nodo44&#45;&gt;nodo45 -->
<g id="edge46" class="edge"><title>nodo44&#45;&gt;nodo45</title>
<path fill="none" stroke="black" d="M137,-4104.7C137,-4096.98 137,-4087.71 137,-4079.11"/>
<polygon fill="black" stroke="black" points="140.5,-4079.1 137,-4069.1 133.5,-4079.1 140.5,-4079.1"/>
</g>
<!-- nodo46 -->
<g id="node46" class="node"><title>nodo46</title>
<ellipse fill="none" stroke="black" cx="137" cy="-3979" rx="27" ry="18"/>
</g>
<!-- nodo45&#45;&gt;nodo46 -->
<g id="edge47" class="edge"><title>nodo45&#45;&gt;nodo46</title>
<path fill="none" stroke="black" d="M137,-4032.7C137,-4024.98 137,-4015.71 137,-4007.11"/>
<polygon fill="black" stroke="black" points="140.5,-4007.1 137,-3997.1 133.5,-4007.1 140.5,-4007.1"/>
</g>
<!-- nodo47 -->
<g id="node47" class="node"><title>nodo47</title>
<ellipse fill="none" stroke="black" cx="137" cy="-3907" rx="27" ry="18"/>
</g>
<!-- nodo46&#45;&gt;nodo47 -->
<g id="edge48" class="edge"><title>nodo46&#45;&gt;nodo47</title>
<path fill="none" stroke="black" d="M137,-3960.7C137,-3952.98 137,-3943.71 137,-3935.11"/>
<polygon fill="black" stroke="black" points="140.5,-3935.1 137,-3925.1 133.5,-3935.1 140.5,-3935.1"/>
</g>
<!-- nodo48 -->
<g id="node48" class="node"><title>nodo48</title>
<ellipse fill="none" stroke="black" cx="137" cy="-3835" rx="27" ry="18"/>
</g>
<!-- nodo47&#45;&gt;nodo48 -->
<g id="edge49" class="edge"><title>nodo47&#45;&gt;nodo48</title>
<path fill="none" stroke="black" d="M137,-3888.7C137,-3880.98 137,-3871.71 137,-3863.11"/>
<polygon fill="black" stroke="black" points="140.5,-3863.1 137,-3853.1 133.5,-3863.1 140.5,-3863.1"/>
</g>
<!-- nodo49 -->
<g id="node49" class="node"><title>nodo49</title>
<ellipse fill="none" stroke="black" cx="137" cy="-3763" rx="27" ry="18"/>
</g>
<!-- nodo48&#45;&gt;nodo49 -->
<g id="edge50" class="edge"><title>nodo48&#45;&gt;nodo49</title>
<path fill="none" stroke="black" d="M137,-3816.7C137,-3808.98 137,-3799.71 137,-3791.11"/>
<polygon fill="black" stroke="black" points="140.5,-3791.1 137,-3781.1 133.5,-3791.1 140.5,-3791.1"/>
</g>
<!-- nodo50 -->
<g id="node50" class="node"><title>nodo50</title>
<ellipse fill="none" stroke="black" cx="137" cy="-3691" rx="27" ry="18"/>
</g>
<!-- nodo49&#45;&gt;nodo50 -->
<g id="edge51" class="edge"><title>nodo49&#45;&gt;nodo50</title>
<path fill="none" stroke="black" d="M137,-3744.7C137,-3736.98 137,-3727.71 137,-3719.11"/>
<polygon fill="black" stroke="black" points="140.5,-3719.1 137,-3709.1 133.5,-3719.1 140.5,-3719.1"/>
</g>
<!-- nodo51 -->
<g id="node51" class="node"><title>nodo51</title>
<ellipse fill="none" stroke="black" cx="137" cy="-3619" rx="27" ry="18"/>
</g>
<!-- nodo50&#45;&gt;nodo51 -->
<g id="edge52" class="edge"><title>nodo50&#45;&gt;nodo51</title>
<path fill="none" stroke="black" d="M137,-3672.7C137,-3664.98 137,-3655.71 137,-3647.11"/>
<polygon fill="black" stroke="black" points="140.5,-3647.1 137,-3637.1 133.5,-3647.1 140.5,-3647.1"/>
</g>
<!-- nodo52 -->
<g id="node52" class="node"><title>nodo52</title>
<ellipse fill="none" stroke="black" cx="137" cy="-3547" rx="27" ry="18"/>
</g>
<!-- nodo51&#45;&gt;nodo52 -->
<g id="edge53" class="edge"><title>nodo51&#45;&gt;nodo52</title>
<path fill="none" stroke="black" d="M137,-3600.7C137,-3592.98 137,-3583.71 137,-3575.11"/>
<polygon fill="black" stroke="black" points="140.5,-3575.1 137,-3565.1 133.5,-3575.1 140.5,-3575.1"/>
</g>
<!-- nodo53 -->
<g id="node53" class="node"><title>nodo53</title>
<ellipse fill="none" stroke="black" cx="137" cy="-3475" rx="27" ry="18"/>
</g>
<!-- nodo52&#45;&gt;nodo53 -->
<g id="edge54" class="edge"><title>nodo52&#45;&gt;nodo53</title>
<path fill="none" stroke="black" d="M137,-3528.7C137,-3520.98 137,-3511.71 137,-3503.11"/>
<polygon fill="black" stroke="black" points="140.5,-3503.1 137,-3493.1 133.5,-3503.1 140.5,-3503.1"/>
</g>
<!-- nodo54 -->
<g id="node54" class="node"><title>nodo54</title>
<ellipse fill="none" stroke="black" cx="137" cy="-3403" rx="27" ry="18"/>
</g>
<!-- nodo53&#45;&gt;nodo54 -->
<g id="edge55" class="edge"><title>nodo53&#45;&gt;nodo54</title>
<path fill="none" stroke="black" d="M137,-3456.7C137,-3448.98 137,-3439.71 137,-3431.11"/>
<polygon fill="black" stroke="black" points="140.5,-3431.1 137,-3421.1 133.5,-3431.1 140.5,-3431.1"/>
</g>
<!-- nodo55 -->
<g id="node55" class="node"><title>nodo55</title>
<ellipse fill="none" stroke="black" cx="137" cy="-3331" rx="27" ry="18"/>
</g>
<!-- nodo54&#45;&gt;nodo55 -->
<g id="edge56" class="edge"><title>nodo54&#45;&gt;nodo55</title>
<path fill="none" stroke="black" d="M137,-3384.7C137,-3376.98 137,-3367.71 137,-3359.11"/>
<polygon fill="black" stroke="black" points="140.5,-3359.1 137,-3349.1 133.5,-3359.1 140.5,-3359.1"/>
</g>
<!-- nodo56 -->
<g id="node56" class="node"><title>nodo56</title>
<ellipse fill="none" stroke="black" cx="137" cy="-3259" rx="27" ry="18"/>
</g>
<!-- nodo55&#45;&gt;nodo56 -->
<g id="edge57" class="edge"><title>nodo55&#45;&gt;nodo56</title>
<path fill="none" stroke="black" d="M137,-3312.7C137,-3304.98 137,-3295.71 137,-3287.11"/>
<polygon fill="black" stroke="black" points="140.5,-3287.1 137,-3277.1 133.5,-3287.1 140.5,-3287.1"/>
</g>
<!-- nodo57 -->
<g id="node57" class="node"><title>nodo57</title>
<ellipse fill="none" stroke="black" cx="137" cy="-3187" rx="27" ry="18"/>
</g>
<!-- nodo56&#45;&gt;nodo57 -->
<g id="edge58" class="edge"><title>nodo56&#45;&gt;nodo57</title>
<path fill="none" stroke="black" d="M137,-3240.7C137,-3232.98 137,-3223.71 137,-3215.11"/>
<polygon fill="black" stroke="black" points="140.5,-3215.1 137,-3205.1 133.5,-3215.1 140.5,-3215.1"/>
</g>
<!-- nodo58 -->
<g id="node58" class="node"><title>nodo58</title>
<ellipse fill="none" stroke="black" cx="137" cy="-3115" rx="27" ry="18"/>
</g>
<!-- nodo57&#45;&gt;nodo58 -->
<g id="edge59" class="edge"><title>nodo57&#45;&gt;nodo58</title>
<path fill="none" stroke="black" d="M137,-3168.7C137,-3160.98 137,-3151.71 137,-3143.11"/>
<polygon fill="black" stroke="black" points="140.5,-3143.1 137,-3133.1 133.5,-3143.1 140.5,-3143.1"/>
</g>
<!-- nodo59 -->
<g id="node59" class="node"><title>nodo59</title>
<ellipse fill="none" stroke="black" cx="137" cy="-3043" rx="27" ry="18"/>
</g>
<!-- nodo58&#45;&gt;nodo59 -->
<g id="edge60" class="edge"><title>nodo58&#45;&gt;nodo59</title>
<path fill="none" stroke="black" d="M137,-3096.7C137,-3088.98 137,-3079.71 137,-3071.11"/>
<polygon fill="black" stroke="black" points="140.5,-3071.1 137,-3061.1 133.5,-3071.1 140.5,-3071.1"/>
</g>
<!-- nodo60 -->
<g id="node60" class="node"><title>nodo60</title>
<ellipse fill="none" stroke="black" cx="137" cy="-2971" rx="27" ry="18"/>
</g>
<!-- nodo59&#45;&gt;nodo60 -->
<g id="edge61" class="edge"><title>nodo59&#45;&gt;nodo60</title>
<path fill="none" stroke="black" d="M137,-3024.7C137,-3016.98 137,-3007.71 137,-2999.11"/>
<polygon fill="black" stroke="black" points="140.5,-2999.1 137,-2989.1 133.5,-2999.1 140.5,-2999.1"/>
</g>
<!-- nodo61 -->
<g id="node61" class="node"><title>nodo61</title>
<ellipse fill="none" stroke="black" cx="137" cy="-2899" rx="27" ry="18"/>
</g>
<!-- nodo60&#45;&gt;nodo61 -->
<g id="edge62" class="edge"><title>nodo60&#45;&gt;nodo61</title>
<path fill="none" stroke="black" d="M137,-2952.7C137,-2944.98 137,-2935.71 137,-2927.11"/>
<polygon fill="black" stroke="black" points="140.5,-2927.1 137,-2917.1 133.5,-2927.1 140.5,-2927.1"/>
</g>
<!-- nodo62 -->
<g id="node62" class="node"><title>nodo62</title>
<ellipse fill="none" stroke="black" cx="137" cy="-2827" rx="27" ry="18"/>
</g>
<!-- nodo61&#45;&gt;nodo62 -->
<g id="edge63" class="edge"><title>nodo61&#45;&gt;nodo62</title>
<path fill="none" stroke="black" d="M137,-2880.7C137,-2872.98 137,-2863.71 137,-2855.11"/>
<polygon fill="black" stroke="black" points="140.5,-2855.1 137,-2845.1 133.5,-2855.1 140.5,-2855.1"/>
</g>
<!-- nodo63 -->
<g id="node63" class="node"><title>nodo63</title>
<ellipse fill="none" stroke="black" cx="137" cy="-2755" rx="27" ry="18"/>
</g>
<!-- nodo62&#45;&gt;nodo63 -->
<g id="edge64" class="edge"><title>nodo62&#45;&gt;nodo63</title>
<path fill="none" stroke="black" d="M137,-2808.7C137,-2800.98 137,-2791.71 137,-2783.11"/>
<polygon fill="black" stroke="black" points="140.5,-2783.1 137,-2773.1 133.5,-2783.1 140.5,-2783.1"/>
</g>
<!-- nodo64 -->
<g id="node64" class="node"><title>nodo64</title>
<ellipse fill="none" stroke="black" cx="137" cy="-2683" rx="27" ry="18"/>
</g>
<!-- nodo63&#45;&gt;nodo64 -->
<g id="edge65" class="edge"><title>nodo63&#45;&gt;nodo64</title>
<path fill="none" stroke="black" d="M137,-2736.7C137,-2728.98 137,-2719.71 137,-2711.11"/>
<polygon fill="black" stroke="black" points="140.5,-2711.1 137,-2701.1 133.5,-2711.1 140.5,-2711.1"/>
</g>
<!-- nodo65 -->
<g id="node65" class="node"><title>nodo65</title>
<ellipse fill="none" stroke="black" cx="137" cy="-2611" rx="27" ry="18"/>
</g>
<!-- nodo64&#45;&gt;nodo65 -->
<g id="edge66" class="edge"><title>nodo64&#45;&gt;nodo65</title>
<path fill="none" stroke="black" d="M137,-2664.7C137,-2656.98 137,-2647.71 137,-2639.11"/>
<polygon fill="black" stroke="black" points="140.5,-2639.1 137,-2629.1 133.5,-2639.1 140.5,-2639.1"/>
</g>
<!-- nodo66 -->
<g id="node66" class="node"><title>nodo66</title>
<ellipse fill="none" stroke="black" cx="137" cy="-2539" rx="27" ry="18"/>
</g>
<!-- nodo65&#45;&gt;nodo66 -->
<g id="edge67" class="edge"><title>nodo65&#45;&gt;nodo66</title>
<path fill="none" stroke="black" d="M137,-2592.7C137,-2584.98 137,-2575.71 137,-2567.11"/>
<polygon fill="black" stroke="black" points="140.5,-2567.1 137,-2557.1 133.5,-2567.1 140.5,-2567.1"/>
</g>
<!-- nodo67 -->
<g id="node67" class="node"><title>nodo67</title>
<ellipse fill="none" stroke="black" cx="137" cy="-2467" rx="27" ry="18"/>
</g>
<!-- nodo66&#45;&gt;nodo67 -->
<g id="edge68" class="edge"><title>nodo66&#45;&gt;nodo67</title>
<path fill="none" stroke="black" d="M137,-2520.7C137,-2512.98 137,-2503.71 137,-2495.11"/>
<polygon fill="black" stroke="black" points="140.5,-2495.1 137,-2485.1 133.5,-2495.1 140.5,-2495.1"/>
</g>
<!-- nodo68 -->
<g id="node68" class="node"><title>nodo68</title>
<ellipse fill="none" stroke="black" cx="137" cy="-2395" rx="27" ry="18"/>
</g>
<!-- nodo67&#45;&gt;nodo68 -->
<g id="edge69" class="edge"><title>nodo67&#45;&gt;nodo68</title>
<path fill="none" stroke="black" d="M137,-2448.7C137,-2440.98 137,-2431.71 137,-2423.11"/>
<polygon fill="black" stroke="black" points="140.5,-2423.1 137,-2413.1 133.5,-2423.1 140.5,-2423.1"/>
</g>
<!-- nodo69 -->
<g id="node69" class="node"><title>nodo69</title>
<ellipse fill="none" stroke="black" cx="137" cy="-2323" rx="27" ry="18"/>
</g>
<!-- nodo68&#45;&gt;nodo69 -->
<g id="edge70" class="edge"><title>nodo68&#45;&gt;nodo69</title>
<path fill="none" stroke="black" d="M137,-2376.7C137,-2368.98 137,-2359.71 137,-2351.11"/>
<polygon fill="black" stroke="black" points="140.5,-2351.1 137,-2341.1 133.5,-2351.1 140.5,-2351.1"/>
</g>
<!-- nodo70 -->
<g id="node70" class="node"><title>nodo70</title>
<ellipse fill="none" stroke="black" cx="137" cy="-2251" rx="27" ry="18"/>
</g>
<!-- nodo69&#45;&gt;nodo70 -->
<g id="edge71" class="edge"><title>nodo69&#45;&gt;nodo70</title>
<path fill="none" stroke="black" d="M137,-2304.7C137,-2296.98 137,-2287.71 137,-2279.11"/>
<polygon fill="black" stroke="black" points="140.5,-2279.1 137,-2269.1 133.5,-2279.1 140.5,-2279.1"/>
</g>
<!-- nodo71 -->
<g id="node71" class="node"><title>nodo71</title>
<ellipse fill="none" stroke="black" cx="137" cy="-2179" rx="27" ry="18"/>
</g>
<!-- nodo70&#45;&gt;nodo71 -->
<g id="edge72" class="edge"><title>nodo70&#45;&gt;nodo71</title>
<path fill="none" stroke="black" d="M137,-2232.7C137,-2224.98 137,-2215.71 137,-2207.11"/>
<polygon fill="black" stroke="black" points="140.5,-2207.1 137,-2197.1 133.5,-2207.1 140.5,-2207.1"/>
</g>
<!-- nodo72 -->
<g id="node72" class="node"><title>nodo72</title>
<ellipse fill="none" stroke="black" cx="137" cy="-2107" rx="27" ry="18"/>
</g>
<!-- nodo71&#45;&gt;nodo72 -->
<g id="edge73" class="edge"><title>nodo71&#45;&gt;nodo72</title>
<path fill="none" stroke="black" d="M137,-2160.7C137,-2152.98 137,-2143.71 137,-2135.11"/>
<polygon fill="black" stroke="black" points="140.5,-2135.1 137,-2125.1 133.5,-2135.1 140.5,-2135.1"/>
</g>
<!-- nodo73 -->
<g id="node73" class="node"><title>nodo73</title>
<ellipse fill="none" stroke="black" cx="137" cy="-2035" rx="27" ry="18"/>
</g>
<!-- nodo72&#45;&gt;nodo73 -->
<g id="edge74" class="edge"><title>nodo72&#45;&gt;nodo73</title>
<path fill="none" stroke="black" d="M137,-2088.7C137,-2080.98 137,-2071.71 137,-2063.11"/>
<polygon fill="black" stroke="black" points="140.5,-2063.1 137,-2053.1 133.5,-2063.1 140.5,-2063.1"/>
</g>
<!-- nodo74 -->
<g id="node74" class="node"><title>nodo74</title>
<ellipse fill="none" stroke="black" cx="137" cy="-1963" rx="27" ry="18"/>
</g>
<!-- nodo73&#45;&gt;nodo74 -->
<g id="edge75" class="edge"><title>nodo73&#45;&gt;nodo74</title>
<path fill="none" stroke="black" d="M137,-2016.7C137,-2008.98 137,-1999.71 137,-1991.11"/>
<polygon fill="black" stroke="black" points="140.5,-1991.1 137,-1981.1 133.5,-1991.1 140.5,-1991.1"/>
</g>
<!-- nodo75 -->
<g id="node75" class="node"><title>nodo75</title>
<ellipse fill="none" stroke="black" cx="137" cy="-1891" rx="27" ry="18"/>
</g>
<!-- nodo74&#45;&gt;nodo75 -->
<g id="edge76" class="edge"><title>nodo74&#45;&gt;nodo75</title>
<path fill="none" stroke="black" d="M137,-1944.7C137,-1936.98 137,-1927.71 137,-1919.11"/>
<polygon fill="black" stroke="black" points="140.5,-1919.1 137,-1909.1 133.5,-1919.1 140.5,-1919.1"/>
</g>
<!-- nodo76 -->
<g id="node76" class="node"><title>nodo76</title>
<ellipse fill="none" stroke="black" cx="137" cy="-1819" rx="27" ry="18"/>
</g>
<!-- nodo75&#45;&gt;nodo76 -->
<g id="edge77" class="edge"><title>nodo75&#45;&gt;nodo76</title>
<path fill="none" stroke="black" d="M137,-1872.7C137,-1864.98 137,-1855.71 137,-1847.11"/>
<polygon fill="black" stroke="black" points="140.5,-1847.1 137,-1837.1 133.5,-1847.1 140.5,-1847.1"/>
</g>
<!-- nodo77 -->
<g id="node77" class="node"><title>nodo77</title>
<ellipse fill="none" stroke="black" cx="137" cy="-1747" rx="27" ry="18"/>
</g>
<!-- nodo76&#45;&gt;nodo77 -->
<g id="edge78" class="edge"><title>nodo76&#45;&gt;nodo77</title>
<path fill="none" stroke="black" d="M137,-1800.7C137,-1792.98 137,-1783.71 137,-1775.11"/>
<polygon fill="black" stroke="black" points="140.5,-1775.1 137,-1765.1 133.5,-1775.1 140.5,-1775.1"/>
</g>
<!-- nodo78 -->
<g id="node78" class="node"><title>nodo78</title>
<ellipse fill="none" stroke="black" cx="137" cy="-1675" rx="27" ry="18"/>
</g>
<!-- nodo77&#45;&gt;nodo78 -->
<g id="edge79" class="edge"><title>nodo77&#45;&gt;nodo78</title>
<path fill="none" stroke="black" d="M137,-1728.7C137,-1720.98 137,-1711.71 137,-1703.11"/>
<polygon fill="black" stroke="black" points="140.5,-1703.1 137,-1693.1 133.5,-1703.1 140.5,-1703.1"/>
</g>
<!-- nodo79 -->
<g id="node79" class="node"><title>nodo79</title>
<ellipse fill="none" stroke="black" cx="137" cy="-1603" rx="27" ry="18"/>
</g>
<!-- nodo78&#45;&gt;nodo79 -->
<g id="edge80" class="edge"><title>nodo78&#45;&gt;nodo79</title>
<path fill="none" stroke="black" d="M137,-1656.7C137,-1648.98 137,-1639.71 137,-1631.11"/>
<polygon fill="black" stroke="black" points="140.5,-1631.1 137,-1621.1 133.5,-1631.1 140.5,-1631.1"/>
</g>
<!-- nodo80 -->
<g id="node80" class="node"><title>nodo80</title>
<ellipse fill="none" stroke="black" cx="137" cy="-1531" rx="27" ry="18"/>
</g>
<!-- nodo79&#45;&gt;nodo80 -->
<g id="edge81" class="edge"><title>nodo79&#45;&gt;nodo80</title>
<path fill="none" stroke="black" d="M137,-1584.7C137,-1576.98 137,-1567.71 137,-1559.11"/>
<polygon fill="black" stroke="black" points="140.5,-1559.1 137,-1549.1 133.5,-1559.1 140.5,-1559.1"/>
</g>
<!-- nodo81 -->
<g id="node81" class="node"><title>nodo81</title>
<ellipse fill="none" stroke="black" cx="137" cy="-1459" rx="27" ry="18"/>
</g>
<!-- nodo80&#45;&gt;nodo81 -->
<g id="edge82" class="edge"><title>nodo80&#45;&gt;nodo81</title>
<path fill="none" stroke="black" d="M137,-1512.7C137,-1504.98 137,-1495.71 137,-1487.11"/>
<polygon fill="black" stroke="black" points="140.5,-1487.1 137,-1477.1 133.5,-1487.1 140.5,-1487.1"/>
</g>
<!-- nodo82 -->
<g id="node82" class="node"><title>nodo82</title>
<ellipse fill="none" stroke="black" cx="137" cy="-1387" rx="27" ry="18"/>
</g>
<!-- nodo81&#45;&gt;nodo82 -->
<g id="edge83" class="edge"><title>nodo81&#45;&gt;nodo82</title>
<path fill="none" stroke="black" d="M137,-1440.7C137,-1432.98 137,-1423.71 137,-1415.11"/>
<polygon fill="black" stroke="black" points="140.5,-1415.1 137,-1405.1 133.5,-1415.1 140.5,-1415.1"/>
</g>
<!-- nodo83 -->
<g id="node83" class="node"><title>nodo83</title>
<ellipse fill="none" stroke="black" cx="137" cy="-1315" rx="27" ry="18"/>
</g>
<!-- nodo82&#45;&gt;nodo83 -->
<g id="edge84" class="edge"><title>nodo82&#45;&gt;nodo83</title>
<path fill="none" stroke="black" d="M137,-1368.7C137,-1360.98 137,-1351.71 137,-1343.11"/>
<polygon fill="black" stroke="black" points="140.5,-1343.1 137,-1333.1 133.5,-1343.1 140.5,-1343.1"/>
</g>
<!-- nodo84 -->
<g id="node84" class="node"><title>nodo84</title>
<ellipse fill="none" stroke="black" cx="137" cy="-1243" rx="27" ry="18"/>
</g>
<!-- nodo83&#45;&gt;nodo84 -->
<g id="edge85" class="edge"><title>nodo83&#45;&gt;nodo84</title>
<path fill="none" stroke="black" d="M137,-1296.7C137,-1288.98 137,-1279.71 137,-1271.11"/>
<polygon fill="black" stroke="black" points="140.5,-1271.1 137,-1261.1 133.5,-1271.1 140.5,-1271.1"/>
</g>
<!-- nodo85 -->
<g id="node85" class="node"><title>nodo85</title>
<ellipse fill="none" stroke="black" cx="137" cy="-1171" rx="27" ry="18"/>
</g>
<!-- nodo84&#45;&gt;nodo85 -->
<g id="edge86" class="edge"><title>nodo84&#45;&gt;nodo85</title>
<path fill="none" stroke="black" d="M137,-1224.7C137,-1216.98 137,-1207.71 137,-1199.11"/>
<polygon fill="black" stroke="black" points="140.5,-1199.1 137,-1189.1 133.5,-1199.1 140.5,-1199.1"/>
</g>
<!-- nodo86 -->
<g id="node86" class="node"><title>nodo86</title>
<ellipse fill="none" stroke="black" cx="137" cy="-1099" rx="27" ry="18"/>
</g>
<!-- nodo85&#45;&gt;nodo86 -->
<g id="edge87" class="edge"><title>nodo85&#45;&gt;nodo86</title>
<path fill="none" stroke="black" d="M137,-1152.7C137,-1144.98 137,-1135.71 137,-1127.11"/>
<polygon fill="black" stroke="black" points="140.5,-1127.1 137,-1117.1 133.5,-1127.1 140.5,-1127.1"/>
</g>
<!-- nodo87 -->
<g id="node87" class="node"><title>nodo87</title>
<ellipse fill="none" stroke="black" cx="137" cy="-1027" rx="27" ry="18"/>
</g>
<!-- nodo86&#45;&gt;nodo87 -->
<g id="edge88" class="edge"><title>nodo86&#45;&gt;nodo87</title>
<path fill="none" stroke="black" d="M137,-1080.7C137,-1072.98 137,-1063.71 137,-1055.11"/>
<polygon fill="black" stroke="black" points="140.5,-1055.1 137,-1045.1 133.5,-1055.1 140.5,-1055.1"/>
</g>
<!-- nodo88 -->
<g id="node88" class="node"><title>nodo88</title>
<ellipse fill="none" stroke="black" cx="137" cy="-955" rx="27" ry="18"/>
</g>
<!-- nodo87&#45;&gt;nodo88 -->
<g id="edge89" class="edge"><title>nodo87&#45;&gt;nodo88</title>
<path fill="none" stroke="black" d="M137,-1008.7C137,-1000.98 137,-991.712 137,-983.112"/>
<polygon fill="black" stroke="black" points="140.5,-983.104 137,-973.104 133.5,-983.104 140.5,-983.104"/>
</g>
<!-- nodo89 -->
<g id="node89" class="node"><title>nodo89</title>
<ellipse fill="none" stroke="black" cx="137" cy="-883" rx="27" ry="18"/>
</g>
<!-- nodo88&#45;&gt;nodo89 -->
<g id="edge90" class="edge"><title>nodo88&#45;&gt;nodo89</title>
<path fill="none" stroke="black" d="M137,-936.697C137,-928.983 137,-919.712 137,-911.112"/>
<polygon fill="black" stroke="black" points="140.5,-911.104 137,-901.104 133.5,-911.104 140.5,-911.104"/>
</g>
<!-- nodo90 -->
<g id="node90" class="node"><title>nodo90</title>
<ellipse fill="none" stroke="black" cx="137" cy="-811" rx="27" ry="18"/>
</g>
<!-- nodo89&#45;&gt;nodo90 -->
<g id="edge91" class="edge"><title>nodo89&#45;&gt;nodo90</title>
<path fill="none" stroke="black" d="M137,-864.697C137,-856.983 137,-847.712 137,-839.112"/>
<polygon fill="black" stroke="black" points="140.5,-839.104 137,-829.104 133.5,-839.104 140.5,-839.104"/>
</g>
<!-- nodo91 -->
<g id="node91" class="node"><title>nodo91</title>
<ellipse fill="none" stroke="black" cx="137" cy="-739" rx="27" ry="18"/>
</g>
<!-- nodo90&#45;&gt;nodo91 -->
<g id="edge92" class="edge"><title>nodo90&#45;&gt;nodo91</title>
<path fill="none" stroke="black" d="M137,-792.697C137,-784.983 137,-775.712 137,-767.112"/>
<polygon fill="black" stroke="black" points="140.5,-767.104 137,-757.104 133.5,-767.104 140.5,-767.104"/>
</g>
<!-- nodo92 -->
<g id="node92" class="node"><title>nodo92</title>
<ellipse fill="none" stroke="black" cx="137" cy="-667" rx="27" ry="18"/>
</g>
<!-- nodo91&#45;&gt;nodo92 -->
<g id="edge93" class="edge"><title>nodo91&#45;&gt;nodo92</title>
<path fill="none" stroke="black" d="M137,-720.697C137,-712.983 137,-703.712 137,-695.112"/>
<polygon fill="black" stroke="black" points="140.5,-695.104 137,-685.104 133.5,-695.104 140.5,-695.104"/>
</g>
<!-- nodo93 -->
<g id="node93" class="node"><title>nodo93</title>
<ellipse fill="none" stroke="black" cx="101" cy="-595" rx="27" ry="18"/>
</g>
<!-- nodo92&#45;&gt;nodo93 -->
<g id="edge94" class="edge"><title>nodo92&#45;&gt;nodo93</title>
<path fill="none" stroke="black" d="M128.65,-649.765C124.288,-641.283 118.853,-630.714 113.959,-621.197"/>
<polygon fill="black" stroke="black" points="116.99,-619.439 109.304,-612.147 110.765,-622.641 116.99,-619.439"/>
</g>
<!-- nodo94 -->
<g id="node94" class="node"><title>nodo94</title>
<ellipse fill="none" stroke="black" cx="173" cy="-595" rx="27" ry="18"/>
</g>
<!-- nodo92&#45;&gt;nodo94 -->
<g id="edge95" class="edge"><title>nodo92&#45;&gt;nodo94</title>
<path fill="none" stroke="black" d="M145.35,-649.765C149.712,-641.283 155.147,-630.714 160.041,-621.197"/>
<polygon fill="black" stroke="black" points="163.235,-622.641 164.696,-612.147 157.01,-619.439 163.235,-622.641"/>
</g>
<!-- nodo95 -->
<g id="node95" class="node"><title>nodo95</title>
<ellipse fill="none" stroke="black" cx="137" cy="-523" rx="27" ry="18"/>
</g>
<!-- nodo93&#45;&gt;nodo95 -->
<g id="edge96" class="edge"><title>nodo93&#45;&gt;nodo95</title>
<path fill="none" stroke="black" d="M109.35,-577.765C113.712,-569.283 119.147,-558.714 124.041,-549.197"/>
<polygon fill="black" stroke="black" points="127.235,-550.641 128.696,-540.147 121.01,-547.439 127.235,-550.641"/>
</g>
<!-- nodo94&#45;&gt;nodo95 -->
<g id="edge97" class="edge"><title>nodo94&#45;&gt;nodo95</title>
<path fill="none" stroke="black" d="M164.65,-577.765C160.288,-569.283 154.853,-558.714 149.959,-549.197"/>
<polygon fill="black" stroke="black" points="152.99,-547.439 145.304,-540.147 146.765,-550.641 152.99,-547.439"/>
</g>
<!-- nodo96 -->
<g id="node96" class="node"><title>nodo96</title>
<ellipse fill="none" stroke="black" cx="137" cy="-451" rx="27" ry="18"/>
</g>
<!-- nodo95&#45;&gt;nodo96 -->
<g id="edge98" class="edge"><title>nodo95&#45;&gt;nodo96</title>
<path fill="none" stroke="black" d="M137,-504.697C137,-496.983 137,-487.712 137,-479.112"/>
<polygon fill="black" stroke="black" points="140.5,-479.104 137,-469.104 133.5,-479.104 140.5,-479.104"/>
</g>
<!-- nodo97 -->
<g id="node97" class="node"><title>nodo97</title>
<ellipse fill="none" stroke="black" cx="137" cy="-379" rx="27" ry="18"/>
</g>
<!-- nodo96&#45;&gt;nodo97 -->
<g id="edge99" class="edge"><title>nodo96&#45;&gt;nodo97</title>
<path fill="none" stroke="black" d="M137,-432.697C137,-424.983 137,-415.712 137,-407.112"/>
<polygon fill="black" stroke="black" points="140.5,-407.104 137,-397.104 133.5,-407.104 140.5,-407.104"/>
</g>
<!-- nodo98 -->
<g id="node98" class="node"><title>nodo98</title>
<ellipse fill="none" stroke="black" cx="137" cy="-307" rx="27" ry="18"/>
</g>
<!-- nodo97&#45;&gt;nodo98 -->
<g id="edge100" class="edge"><title>nodo97&#45;&gt;nodo98</title>
<path fill="none" stroke="black" d="M137,-360.697C137,-352.983 137,-343.712 137,-335.112"/>
<polygon fill="black" stroke="black" points="140.5,-335.104 137,-325.104 133.5,-335.104 140.5,-335.104"/>
</g>
<!-- nodo99 -->
<g id="node99" class="node"><title>nodo99</title>
<ellipse fill="none" stroke="black" cx="137" cy="-235" rx="27" ry="18"/>
</g>
<!-- nodo98&#45;&gt;nodo99 -->
<g id="edge101" class="edge"><title>nodo98&#45;&gt;nodo99</title>
<path fill="none" stroke="black" d="M137,-288.697C137,-280.983 137,-271.712 137,-263.112"/>
<polygon fill="black" stroke="black" points="140.5,-263.104 137,-253.104 133.5,-263.104 140.5,-263.104"/>
</g>
<!-- nodo100 -->
<g id="node100" class="node"><title>nodo100</title>
<ellipse fill="none" stroke="black" cx="137" cy="-163" rx="27" ry="18"/>
</g>
<!-- nodo99&#45;&gt;nodo100 -->
<g id="edge102" class="edge"><title>nodo99&#45;&gt;nodo100</title>
<path fill="none" stroke="black" d="M137,-216.697C137,-208.983 137,-199.712 137,-191.112"/>
<polygon fill="black" stroke="black" points="140.5,-191.104 137,-181.104 133.5,-191.104 140.5,-191.104"/>
</g>
<!-- nodo101 -->
<g id="node101" class="node"><title>nodo101</title>
<ellipse fill="none" stroke="black" cx="137" cy="-91" rx="27" ry="18"/>
</g>
<!-- nodo100&#45;&gt;nodo101 -->
<g id="edge103" class="edge"><title>nodo100&#45;&gt;nodo101</title>
<path fill="none" stroke="black" d="M137,-144.697C137,-136.983 137,-127.712 137,-119.112"/>
<polygon fill="black" stroke="black" points="140.5,-119.104 137,-109.104 133.5,-119.104 140.5,-119.104"/>
</g>
<!-- nodo102 -->
<g id="node102" class="node"><title>nodo102</title>
<polygon fill="white" stroke="black" points="155.5,-37 118.5,-37 118.5,-0 155.5,-0 155.5,-37"/>
<polyline fill="none" stroke="black" points="130.5,-37 118.5,-25 "/>
<polyline fill="none" stroke="black" points="118.5,-12 130.5,-0 "/>
<polyline fill="none" stroke="black" points="143.5,-0 155.5,-12 "/>
<polyline fill="none" stroke="black" points="155.5,-25 143.5,-37 "/>
<text text-anchor="middle" x="137" y="-14.8" font-family="Times New Roman,serif" font-size="14.00">end</text>
</g>
<!-- nodo101&#45;&gt;nodo102 -->
<g id="edge104" class="edge"><title>nodo101&#45;&gt;nodo102</title>
<path fill="none" stroke="black" d="M137,-72.9339C137,-65.2854 137,-56.064 137,-47.4508"/>
<polygon fill="black" stroke="black" points="140.5,-47.3926 137,-37.3927 133.5,-47.3927 140.5,-47.3926"/>
</g>
</g>
</svg>
