<?xml version="1.0" encoding="UTF-8" standalone="no"?>
<!DOCTYPE svg PUBLIC "-//W3C//DTD SVG 1.1//EN"
 "http://www.w3.org/Graphics/SVG/1.1/DTD/svg11.dtd">
<!-- Generated by graphviz version 2.38.0 (20140413.2041)
 -->
<!-- Title: G Pages: 1 -->
<svg width="1758pt" height="404pt"
 viewBox="0.00 0.00 1758.49 404.00" xmlns="http://www.w3.org/2000/svg" xmlns:xlink="http://www.w3.org/1999/xlink">
<g id="graph0" class="graph" transform="scale(1 1) rotate(0) translate(4 400)">
<title>G</title>
<polygon fill="white" stroke="none" points="-4,4 -4,-400 1754.49,-400 1754.49,4 -4,4"/>
<!-- nodoPruebaIf -->
<g id="node1" class="node"><title>nodoPruebaIf</title>
<ellipse fill="none" stroke="black" cx="96.9464" cy="-306" rx="42.4939" ry="18"/>
<text text-anchor="middle" x="96.9464" y="-302.3" font-family="Times New Roman,serif" font-size="14.00">PruebaIf</text>
</g>
<!-- nodoimprimirconintro -->
<g id="node2" class="node"><title>nodoimprimirconintro</title>
<ellipse fill="none" stroke="black" cx="595.946" cy="-90" rx="71.4873" ry="18"/>
<text text-anchor="middle" x="595.946" y="-86.3" font-family="Times New Roman,serif" font-size="14.00">imprimirconintro</text>
</g>
<!-- nodoPruebaIf&#45;&gt;nodoimprimirconintro -->
<g id="edge1" class="edge"><title>nodoPruebaIf&#45;&gt;nodoimprimirconintro</title>
<path fill="none" stroke="black" d="M92.0904,-287.846C92.2301,-268.52 98.9744,-237.064 115.946,-216 156.413,-165.776 181.05,-165.253 241.946,-144 332.382,-112.437 442.666,-99.6455 515.93,-94.4774"/>
<polygon fill="black" stroke="black" points="516.274,-97.9623 526.016,-93.7976 515.803,-90.9781 516.274,-97.9623"/>
</g>
<!-- nodoPruebaIf&#45;&gt;nodoimprimirconintro -->
<g id="edge4" class="edge"><title>nodoPruebaIf&#45;&gt;nodoimprimirconintro</title>
<path fill="none" stroke="black" d="M105.001,-288.192C110.15,-268.897 116.873,-237.19 133.946,-216 174.413,-165.776 199.05,-165.253 259.946,-144 344.88,-114.358 447.321,-101.271 516.65,-95.5078"/>
<polygon fill="black" stroke="black" points="516.944,-98.9956 526.633,-94.7095 516.386,-92.0179 516.944,-98.9956"/>
</g>
<!-- nodoimprimir -->
<g id="node3" class="node"><title>nodoimprimir</title>
<ellipse fill="none" stroke="black" cx="40.9464" cy="-18" rx="40.8928" ry="18"/>
<text text-anchor="middle" x="40.9464" y="-14.3" font-family="Times New Roman,serif" font-size="14.00">imprimir</text>
</g>
<!-- nodoPruebaIf&#45;&gt;nodoimprimir -->
<g id="edge2" class="edge"><title>nodoPruebaIf&#45;&gt;nodoimprimir</title>
<path fill="none" stroke="black" d="M90.1981,-287.966C76.6625,-240.192 49.8654,-104.623 42.1162,-46.2658"/>
<polygon fill="black" stroke="black" points="45.5864,-45.8077 40.8984,-36.3065 38.6381,-46.6574 45.5864,-45.8077"/>
</g>
<!-- nodoPruebaIf&#45;&gt;nodoimprimir -->
<g id="edge3" class="edge"><title>nodoPruebaIf&#45;&gt;nodoimprimir</title>
<path fill="none" stroke="black" d="M97.0239,-287.966C91.8386,-240.079 65.4331,-103.98 50.3469,-45.8523"/>
<polygon fill="black" stroke="black" points="53.6571,-44.6854 47.6693,-35.9448 46.8996,-46.5117 53.6571,-44.6854"/>
</g>
<!-- nodoimprimirconintro&#45;&gt;nodoimprimir -->
<g id="edge47" class="edge"><title>nodoimprimirconintro&#45;&gt;nodoimprimir</title>
<path fill="none" stroke="black" d="M533.628,-81.1401C422.178,-67.0833 190.949,-37.9192 89.9422,-25.1797"/>
<polygon fill="black" stroke="black" points="90.0784,-21.6692 79.719,-23.8902 89.2024,-28.6142 90.0784,-21.6692"/>
</g>
<!-- nodoPruebaParametros -->
<g id="node4" class="node"><title>nodoPruebaParametros</title>
<ellipse fill="none" stroke="black" cx="210.946" cy="-234" rx="77.1866" ry="18"/>
<text text-anchor="middle" x="210.946" y="-230.3" font-family="Times New Roman,serif" font-size="14.00">PruebaParametros</text>
</g>
<!-- nodoPruebaParametros&#45;&gt;nodoimprimirconintro -->
<g id="edge5" class="edge"><title>nodoPruebaParametros&#45;&gt;nodoimprimirconintro</title>
<path fill="none" stroke="black" d="M222.822,-216.166C238.304,-195.603 267.4,-161.413 300.946,-144 367.663,-109.369 453.019,-96.9457 514.735,-92.6939"/>
<polygon fill="black" stroke="black" points="515.055,-96.1807 524.815,-92.0574 514.614,-89.1946 515.055,-96.1807"/>
</g>
<!-- nodoPruebaTransitivaIntermedia -->
<g id="node5" class="node"><title>nodoPruebaTransitivaIntermedia</title>
<ellipse fill="none" stroke="black" cx="561.946" cy="-234" rx="109.681" ry="18"/>
<text text-anchor="middle" x="561.946" y="-230.3" font-family="Times New Roman,serif" font-size="14.00">PruebaTransitivaIntermedia</text>
</g>
<!-- nodoPruebaTransitivaIntermedia&#45;&gt;nodoimprimirconintro -->
<g id="edge6" class="edge"><title>nodoPruebaTransitivaIntermedia&#45;&gt;nodoimprimirconintro</title>
<path fill="none" stroke="black" d="M524.758,-217.057C510.595,-208.08 496.252,-195.535 488.946,-180 482.138,-165.521 480.754,-157.744 488.946,-144 499.24,-126.73 517.33,-114.747 535.791,-106.605"/>
<polygon fill="black" stroke="black" points="537.2,-109.81 545.144,-102.8 534.562,-103.326 537.2,-109.81"/>
</g>
<!-- nodoPruebaTransitivaIntermedia&#45;&gt;nodoimprimirconintro -->
<g id="edge8" class="edge"><title>nodoPruebaTransitivaIntermedia&#45;&gt;nodoimprimirconintro</title>
<path fill="none" stroke="black" d="M539.697,-216.14C527.638,-207.233 514.006,-195.013 506.946,-180 500.138,-165.521 498.754,-157.744 506.946,-144 516.136,-128.583 531.538,-117.379 547.014,-109.36"/>
<polygon fill="black" stroke="black" points="548.592,-112.485 556.088,-104.998 545.559,-106.176 548.592,-112.485"/>
</g>
<!-- nodoPruebaTransitivaFinal -->
<g id="node6" class="node"><title>nodoPruebaTransitivaFinal</title>
<ellipse fill="none" stroke="black" cx="595.946" cy="-162" rx="89.0842" ry="18"/>
<text text-anchor="middle" x="595.946" y="-158.3" font-family="Times New Roman,serif" font-size="14.00">PruebaTransitivaFinal</text>
</g>
<!-- nodoPruebaTransitivaIntermedia&#45;&gt;nodoPruebaTransitivaFinal -->
<g id="edge7" class="edge"><title>nodoPruebaTransitivaIntermedia&#45;&gt;nodoPruebaTransitivaFinal</title>
<path fill="none" stroke="black" d="M570.351,-215.697C574.221,-207.728 578.898,-198.1 583.19,-189.264"/>
<polygon fill="black" stroke="black" points="586.418,-190.629 587.639,-180.104 580.121,-187.57 586.418,-190.629"/>
</g>
<!-- nodoPruebaTransitivaFinal&#45;&gt;nodoimprimirconintro -->
<g id="edge48" class="edge"><title>nodoPruebaTransitivaFinal&#45;&gt;nodoimprimirconintro</title>
<path fill="none" stroke="black" d="M595.946,-143.697C595.946,-135.983 595.946,-126.712 595.946,-118.112"/>
<polygon fill="black" stroke="black" points="599.446,-118.104 595.946,-108.104 592.446,-118.104 599.446,-118.104"/>
</g>
<!-- nodomain -->
<g id="node7" class="node"><title>nodomain</title>
<ellipse fill="none" stroke="black" cx="369.946" cy="-378" rx="27.8951" ry="18"/>
<text text-anchor="middle" x="369.946" y="-374.3" font-family="Times New Roman,serif" font-size="14.00">main</text>
</g>
<!-- nodomain&#45;&gt;nodoPruebaIf -->
<g id="edge10" class="edge"><title>nodomain&#45;&gt;nodoPruebaIf</title>
<path fill="none" stroke="black" d="M344.263,-370.415C297.933,-358.535 199.832,-333.381 142.078,-318.572"/>
<polygon fill="black" stroke="black" points="142.688,-315.115 132.132,-316.022 140.949,-321.896 142.688,-315.115"/>
</g>
<!-- nodomain&#45;&gt;nodoimprimirconintro -->
<g id="edge9" class="edge"><title>nodomain&#45;&gt;nodoimprimirconintro</title>
<path fill="none" stroke="black" d="M350.051,-365.221C328.208,-327.557 362.753,-208.749 434.946,-144 457.561,-123.718 489.344,-109.29 522.518,-100.659"/>
<polygon fill="black" stroke="black" points="523.479,-104.027 532.375,-98.2726 521.832,-97.224 523.479,-104.027"/>
</g>
<!-- nodomain&#45;&gt;nodoimprimirconintro -->
<g id="edge14" class="edge"><title>nodomain&#45;&gt;nodoimprimirconintro</title>
<path fill="none" stroke="black" d="M356.757,-361.856C348.179,-320.922 382.782,-206.929 452.946,-144 473.22,-125.817 500.862,-112.339 527.837,-103.525"/>
<polygon fill="black" stroke="black" points="529.197,-106.769 537.73,-100.489 527.143,-100.077 529.197,-106.769"/>
</g>
<!-- nodomain&#45;&gt;nodoimprimirconintro -->
<g id="edge17" class="edge"><title>nodomain&#45;&gt;nodoimprimirconintro</title>
<path fill="none" stroke="black" d="M365.237,-360.035C367.187,-317.636 401.796,-206.019 470.946,-144 489.176,-127.65 513.364,-115.104 535.899,-106.333"/>
<polygon fill="black" stroke="black" points="537.27,-109.558 545.434,-102.805 534.84,-102.993 537.27,-109.558"/>
</g>
<!-- nodomain&#45;&gt;nodoimprimirconintro -->
<g id="edge19" class="edge"><title>nodomain&#45;&gt;nodoimprimirconintro</title>
<path fill="none" stroke="black" d="M374.061,-360.035C385.187,-317.636 419.796,-206.019 488.946,-144 505.458,-129.191 526.858,-117.503 546.176,-108.914"/>
<polygon fill="black" stroke="black" points="547.641,-112.094 555.462,-104.946 544.891,-105.657 547.641,-112.094"/>
</g>
<!-- nodomain&#45;&gt;nodoimprimirconintro -->
<g id="edge22" class="edge"><title>nodomain&#45;&gt;nodoimprimirconintro</title>
<path fill="none" stroke="black" d="M382.147,-361.559C402.346,-320.373 436.951,-206.777 506.946,-144 522.181,-130.336 541.578,-119.329 558.628,-110.962"/>
<polygon fill="black" stroke="black" points="560.295,-114.045 567.818,-106.585 557.285,-107.725 560.295,-114.045"/>
</g>
<!-- nodomain&#45;&gt;nodoimprimirconintro -->
<g id="edge23" class="edge"><title>nodomain&#45;&gt;nodoimprimirconintro</title>
<path fill="none" stroke="black" d="M388.486,-364.415C418.695,-325.89 453.26,-208.294 524.946,-144 539.26,-131.162 557.247,-120.67 572.655,-112.508"/>
<polygon fill="black" stroke="black" points="574.598,-115.443 581.86,-107.728 571.372,-109.231 574.598,-115.443"/>
</g>
<!-- nodomain&#45;&gt;nodoimprimirconintro -->
<g id="edge25" class="edge"><title>nodomain&#45;&gt;nodoimprimirconintro</title>
<path fill="none" stroke="black" d="M392.815,-367.493C434.768,-332.589 469.231,-210.113 542.946,-144 556.872,-131.51 574.274,-121.241 588.608,-113.178"/>
<polygon fill="black" stroke="black" points="590.496,-116.132 597.516,-108.197 587.08,-110.022 590.496,-116.132"/>
</g>
<!-- nodomain&#45;&gt;nodoPruebaParametros -->
<g id="edge16" class="edge"><title>nodomain&#45;&gt;nodoPruebaParametros</title>
<path fill="none" stroke="black" d="M352.186,-364.018C338.205,-353.596 318.402,-338.38 301.946,-324 277.922,-303.006 252.052,-277.385 234.06,-259.033"/>
<polygon fill="black" stroke="black" points="236.346,-256.364 226.859,-251.647 231.334,-261.251 236.346,-256.364"/>
</g>
<!-- nodomain&#45;&gt;nodoPruebaTransitivaIntermedia -->
<g id="edge15" class="edge"><title>nodomain&#45;&gt;nodoPruebaTransitivaIntermedia</title>
<path fill="none" stroke="black" d="M387.665,-363.896C420.34,-339.73 490.45,-287.878 531.086,-257.824"/>
<polygon fill="black" stroke="black" points="533.327,-260.52 539.286,-251.759 529.165,-254.892 533.327,-260.52"/>
</g>
<!-- nodoPruebaFor -->
<g id="node8" class="node"><title>nodoPruebaFor</title>
<ellipse fill="none" stroke="black" cx="974.946" cy="-306" rx="49.2915" ry="18"/>
<text text-anchor="middle" x="974.946" y="-302.3" font-family="Times New Roman,serif" font-size="14.00">PruebaFor</text>
</g>
<!-- nodomain&#45;&gt;nodoPruebaFor -->
<g id="edge11" class="edge"><title>nodomain&#45;&gt;nodoPruebaFor</title>
<path fill="none" stroke="black" d="M397.81,-375.909C478.175,-372.414 717.091,-359.562 911.946,-324 917.108,-323.058 922.463,-321.9 927.774,-320.636"/>
<polygon fill="black" stroke="black" points="929.022,-323.932 937.869,-318.102 927.318,-317.142 929.022,-323.932"/>
</g>
<!-- nodoPruebaWhile -->
<g id="node9" class="node"><title>nodoPruebaWhile</title>
<ellipse fill="none" stroke="black" cx="759.946" cy="-162" rx="57.3905" ry="18"/>
<text text-anchor="middle" x="759.946" y="-158.3" font-family="Times New Roman,serif" font-size="14.00">PruebaWhile</text>
</g>
<!-- nodomain&#45;&gt;nodoPruebaWhile -->
<g id="edge12" class="edge"><title>nodomain&#45;&gt;nodoPruebaWhile</title>
<path fill="none" stroke="black" d="M396.097,-370.874C452.217,-356.834 586.74,-318.336 680.946,-252 705.815,-234.489 728.206,-207.686 742.746,-188.069"/>
<polygon fill="black" stroke="black" points="745.641,-190.038 748.667,-179.885 739.97,-185.935 745.641,-190.038"/>
</g>
<!-- nodoPruebaTransitiva -->
<g id="node10" class="node"><title>nodoPruebaTransitiva</title>
<ellipse fill="none" stroke="black" cx="798.946" cy="-306" rx="71.4873" ry="18"/>
<text text-anchor="middle" x="798.946" y="-302.3" font-family="Times New Roman,serif" font-size="14.00">PruebaTransitiva</text>
</g>
<!-- nodomain&#45;&gt;nodoPruebaTransitiva -->
<g id="edge13" class="edge"><title>nodomain&#45;&gt;nodoPruebaTransitiva</title>
<path fill="none" stroke="black" d="M397.217,-373.22C455.492,-365.049 596.429,-344.794 713.946,-324 720.976,-322.756 728.319,-321.39 735.618,-319.988"/>
<polygon fill="black" stroke="black" points="736.363,-323.409 745.511,-318.065 735.026,-316.538 736.363,-323.409"/>
</g>
<!-- nodoPruebaDevolucion -->
<g id="node11" class="node"><title>nodoPruebaDevolucion</title>
<ellipse fill="none" stroke="black" cx="1119.95" cy="-306" rx="77.1866" ry="18"/>
<text text-anchor="middle" x="1119.95" y="-302.3" font-family="Times New Roman,serif" font-size="14.00">PruebaDevolucion</text>
</g>
<!-- nodomain&#45;&gt;nodoPruebaDevolucion -->
<g id="edge18" class="edge"><title>nodomain&#45;&gt;nodoPruebaDevolucion</title>
<path fill="none" stroke="black" d="M397.859,-375.901C489.318,-372.059 788.132,-357.594 1032.95,-324 1040.07,-323.022 1047.5,-321.834 1054.88,-320.546"/>
<polygon fill="black" stroke="black" points="1055.66,-323.962 1064.88,-318.737 1054.41,-317.073 1055.66,-323.962"/>
</g>
<!-- nodoPruebaConcatenacion -->
<g id="node12" class="node"><title>nodoPruebaConcatenacion</title>
<ellipse fill="none" stroke="black" cx="1305.95" cy="-306" rx="90.1842" ry="18"/>
<text text-anchor="middle" x="1305.95" y="-302.3" font-family="Times New Roman,serif" font-size="14.00">PruebaConcatenacion</text>
</g>
<!-- nodomain&#45;&gt;nodoPruebaConcatenacion -->
<g id="edge20" class="edge"><title>nodomain&#45;&gt;nodoPruebaConcatenacion</title>
<path fill="none" stroke="black" d="M397.825,-376.296C503.575,-373.4 889.95,-360.773 1205.95,-324 1214.53,-323.002 1223.49,-321.762 1232.37,-320.41"/>
<polygon fill="black" stroke="black" points="1233.01,-323.853 1242.34,-318.843 1231.92,-316.938 1233.01,-323.853"/>
</g>
<!-- nodoPruebaLogica -->
<g id="node13" class="node"><title>nodoPruebaLogica</title>
<ellipse fill="none" stroke="black" cx="1474.95" cy="-306" rx="61.1893" ry="18"/>
<text text-anchor="middle" x="1474.95" y="-302.3" font-family="Times New Roman,serif" font-size="14.00">PruebaLogica</text>
</g>
<!-- nodomain&#45;&gt;nodoPruebaLogica -->
<g id="edge21" class="edge"><title>nodomain&#45;&gt;nodoPruebaLogica</title>
<path fill="none" stroke="black" d="M398.043,-376.273C542.475,-372.427 1202.42,-353.512 1404.95,-324 1410.44,-323.2 1416.13,-322.166 1421.79,-321.004"/>
<polygon fill="black" stroke="black" points="1422.86,-324.352 1431.88,-318.796 1421.36,-317.514 1422.86,-324.352"/>
</g>
<!-- nodoPruebaFuncionesCadena -->
<g id="node14" class="node"><title>nodoPruebaFuncionesCadena</title>
<ellipse fill="none" stroke="black" cx="991.946" cy="-162" rx="100.983" ry="18"/>
<text text-anchor="middle" x="991.946" y="-158.3" font-family="Times New Roman,serif" font-size="14.00">PruebaFuncionesCadena</text>
</g>
<!-- nodomain&#45;&gt;nodoPruebaFuncionesCadena -->
<g id="edge24" class="edge"><title>nodomain&#45;&gt;nodoPruebaFuncionesCadena</title>
<path fill="none" stroke="black" d="M397.937,-377.082C492.143,-376.903 796.411,-372.502 878.946,-324 906.329,-307.909 953.578,-230.201 977.366,-188.914"/>
<polygon fill="black" stroke="black" points="980.552,-190.393 982.478,-179.975 974.475,-186.918 980.552,-190.393"/>
</g>
<!-- nodoPruebaWhile&#45;&gt;nodoimprimirconintro -->
<g id="edge26" class="edge"><title>nodoPruebaWhile&#45;&gt;nodoimprimirconintro</title>
<path fill="none" stroke="black" d="M723.688,-147.834C697.648,-137.358 662.683,-122.537 635.862,-110.656"/>
<polygon fill="black" stroke="black" points="636.939,-107.304 626.38,-106.426 634.087,-113.697 636.939,-107.304"/>
</g>
<!-- nodoPruebaWhile&#45;&gt;nodoimprimirconintro -->
<g id="edge27" class="edge"><title>nodoPruebaWhile&#45;&gt;nodoimprimirconintro</title>
<path fill="none" stroke="black" d="M731.181,-146.326C707.076,-135.448 672.323,-120.562 644.032,-108.971"/>
<polygon fill="black" stroke="black" points="645.292,-105.705 634.711,-105.177 642.653,-112.188 645.292,-105.705"/>
</g>
<!-- nodoPruebaTransitiva&#45;&gt;nodoimprimirconintro -->
<g id="edge49" class="edge"><title>nodoPruebaTransitiva&#45;&gt;nodoimprimirconintro</title>
<path fill="none" stroke="black" d="M804.315,-287.827C818.701,-255.852 850.83,-186.58 816.946,-144 814.328,-140.709 720.429,-119.832 655.809,-105.285"/>
<polygon fill="black" stroke="black" points="656.233,-101.792 645.708,-103.008 654.694,-108.621 656.233,-101.792"/>
</g>
<!-- nodoPruebaTransitiva&#45;&gt;nodoimprimirconintro -->
<g id="edge51" class="edge"><title>nodoPruebaTransitiva&#45;&gt;nodoimprimirconintro</title>
<path fill="none" stroke="black" d="M814.379,-288.324C836.364,-256.575 869.006,-186.801 834.946,-144 832.226,-140.581 730.978,-118.179 661.073,-103.615"/>
<polygon fill="black" stroke="black" points="661.504,-100.13 651.002,-101.527 660.082,-106.985 661.504,-100.13"/>
</g>
<!-- nodoPruebaTransitiva&#45;&gt;nodoPruebaTransitivaIntermedia -->
<g id="edge50" class="edge"><title>nodoPruebaTransitiva&#45;&gt;nodoPruebaTransitivaIntermedia</title>
<path fill="none" stroke="black" d="M754.368,-291.834C717.128,-280.834 663.669,-265.045 622.545,-252.898"/>
<polygon fill="black" stroke="black" points="623.489,-249.528 612.907,-250.052 621.506,-256.241 623.489,-249.528"/>
</g>
<!-- nodoPruebaFuncionesCadena&#45;&gt;nodoimprimirconintro -->
<g id="edge35" class="edge"><title>nodoPruebaFuncionesCadena&#45;&gt;nodoimprimirconintro</title>
<path fill="none" stroke="black" d="M897.311,-155.757C803.669,-147.03 686.711,-128.617 581.594,-108.858"/>
<polygon fill="black" stroke="black" points="581.936,-105.36 571.46,-106.942 580.635,-112.238 581.936,-105.36"/>
</g>
<!-- nodoPruebaFuncionesCadena&#45;&gt;nodoimprimirconintro -->
<g id="edge36" class="edge"><title>nodoPruebaFuncionesCadena&#45;&gt;nodoimprimirconintro</title>
<path fill="none" stroke="black" d="M899.202,-154.819C813.491,-145.767 701.452,-128 604.465,-109.797"/>
<polygon fill="black" stroke="black" points="605.003,-106.337 594.527,-107.92 603.704,-113.215 605.003,-106.337"/>
</g>
<!-- nodoPruebaFuncionesCadena&#45;&gt;nodoimprimirconintro -->
<g id="edge37" class="edge"><title>nodoPruebaFuncionesCadena&#45;&gt;nodoimprimirconintro</title>
<path fill="none" stroke="black" d="M902.205,-153.815C823.283,-144.493 715.943,-127.344 621.269,-109.569"/>
<polygon fill="black" stroke="black" points="621.742,-106.096 611.267,-107.679 620.443,-112.975 621.742,-106.096"/>
</g>
<!-- nodoPruebaFuncionesCadena&#45;&gt;nodoimprimirconintro -->
<g id="edge38" class="edge"><title>nodoPruebaFuncionesCadena&#45;&gt;nodoimprimirconintro</title>
<path fill="none" stroke="black" d="M905.524,-152.658C832.35,-143.096 729.706,-126.564 633.622,-108.476"/>
<polygon fill="black" stroke="black" points="634.224,-105.027 623.747,-106.607 632.922,-111.905 634.224,-105.027"/>
</g>
<!-- nodoPruebaFuncionesCadena&#45;&gt;nodoimprimirconintro -->
<g id="edge39" class="edge"><title>nodoPruebaFuncionesCadena&#45;&gt;nodoimprimirconintro</title>
<path fill="none" stroke="black" d="M910.088,-151.475C839.551,-141.423 737.069,-124.745 648.946,-108 647.652,-107.754 646.346,-107.503 645.032,-107.249"/>
<polygon fill="black" stroke="black" points="645.37,-103.748 634.88,-105.234 644.007,-110.614 645.37,-103.748"/>
</g>
<!-- nodoPruebaFuncionesCadena&#45;&gt;nodoimprimirconintro -->
<g id="edge40" class="edge"><title>nodoPruebaFuncionesCadena&#45;&gt;nodoimprimirconintro</title>
<path fill="none" stroke="black" d="M915.43,-150.227C849.312,-140.078 751.517,-124.07 666.946,-108 662.788,-107.21 658.513,-106.373 654.219,-105.511"/>
<polygon fill="black" stroke="black" points="654.711,-102.04 644.213,-103.466 653.309,-108.898 654.711,-102.04"/>
</g>
<!-- nodoPruebaFuncionesCadena&#45;&gt;nodoimprimirconintro -->
<g id="edge41" class="edge"><title>nodoPruebaFuncionesCadena&#45;&gt;nodoimprimirconintro</title>
<path fill="none" stroke="black" d="M922.068,-149.021C859.749,-138.837 766.238,-123.447 684.946,-108 677.394,-106.565 669.458,-104.976 661.553,-103.364"/>
<polygon fill="black" stroke="black" points="662.088,-99.9006 651.589,-101.318 660.68,-106.758 662.088,-99.9006"/>
</g>
<!-- nodoPruebaFuncionesCadena&#45;&gt;nodoimprimirconintro -->
<g id="edge42" class="edge"><title>nodoPruebaFuncionesCadena&#45;&gt;nodoimprimirconintro</title>
<path fill="none" stroke="black" d="M929.566,-147.817C870.538,-137.647 781.095,-122.85 702.946,-108 691.83,-105.888 679.883,-103.443 667.885,-101.078"/>
<polygon fill="black" stroke="black" points="668.296,-97.5925 657.812,-99.119 666.96,-104.464 668.296,-97.5925"/>
</g>
<!-- nodoPruebaFuncionesCadena&#45;&gt;nodoimprimirconintro -->
<g id="edge43" class="edge"><title>nodoPruebaFuncionesCadena&#45;&gt;nodoimprimirconintro</title>
<path fill="none" stroke="black" d="M938.445,-146.733C882.297,-136.612 796.363,-122.331 720.946,-108 706.021,-105.164 689.596,-101.729 672.247,-98.6907"/>
<polygon fill="black" stroke="black" points="672.372,-95.1626 661.93,-96.9554 671.211,-102.066 672.372,-95.1626"/>
</g>
<!-- nodoPruebaFuncionesCadena&#45;&gt;nodoimprimirconintro -->
<g id="edge44" class="edge"><title>nodoPruebaFuncionesCadena&#45;&gt;nodoimprimirconintro</title>
<path fill="none" stroke="black" d="M948.306,-145.73C894.704,-135.681 811.903,-121.863 738.946,-108 720.29,-104.455 699.291,-99.9739 674.506,-96.5025"/>
<polygon fill="black" stroke="black" points="674.804,-93.0116 664.433,-95.1781 673.891,-99.9518 674.804,-93.0116"/>
</g>
<!-- nodoPruebaFuncionesCadena&#45;&gt;nodoimprimirconintro -->
<g id="edge45" class="edge"><title>nodoPruebaFuncionesCadena&#45;&gt;nodoimprimirconintro</title>
<path fill="none" stroke="black" d="M959.673,-144.932C908.369,-134.956 827.991,-121.5 756.946,-108 735.207,-103.869 710.287,-98.4673 675.841,-94.8731"/>
<polygon fill="black" stroke="black" points="676.158,-91.3875 665.868,-93.9098 675.485,-98.3551 676.158,-91.3875"/>
</g>
<!-- nodoPruebaFuncionesCadena&#45;&gt;nodoimprimirconintro -->
<g id="edge46" class="edge"><title>nodoPruebaFuncionesCadena&#45;&gt;nodoimprimirconintro</title>
<path fill="none" stroke="black" d="M972.168,-144.294C922.972,-134.387 844.488,-121.214 774.946,-108 750.854,-103.422 722.856,-97.2832 676.787,-93.7735"/>
<polygon fill="black" stroke="black" points="676.897,-90.2727 666.677,-93.066 676.408,-97.2557 676.897,-90.2727"/>
</g>
<!-- nodocadenaDonde -->
<g id="node15" class="node"><title>nodocadenaDonde</title>
<ellipse fill="none" stroke="black" cx="1190.95" cy="-90" rx="60.3893" ry="18"/>
<text text-anchor="middle" x="1190.95" y="-86.3" font-family="Times New Roman,serif" font-size="14.00">cadenaDonde</text>
</g>
<!-- nodoPruebaFuncionesCadena&#45;&gt;nodocadenaDonde -->
<g id="edge28" class="edge"><title>nodoPruebaFuncionesCadena&#45;&gt;nodocadenaDonde</title>
<path fill="none" stroke="black" d="M1035.62,-145.638C1067.55,-134.405 1110.83,-119.181 1143.6,-107.656"/>
<polygon fill="black" stroke="black" points="1145.13,-110.826 1153.4,-104.206 1142.81,-104.223 1145.13,-110.826"/>
</g>
<!-- nodocadenaSinEspacios -->
<g id="node16" class="node"><title>nodocadenaSinEspacios</title>
<ellipse fill="none" stroke="black" cx="1350.95" cy="-90" rx="81.4863" ry="18"/>
<text text-anchor="middle" x="1350.95" y="-86.3" font-family="Times New Roman,serif" font-size="14.00">cadenaSinEspacios</text>
</g>
<!-- nodoPruebaFuncionesCadena&#45;&gt;nodocadenaSinEspacios -->
<g id="edge29" class="edge"><title>nodoPruebaFuncionesCadena&#45;&gt;nodocadenaSinEspacios</title>
<path fill="none" stroke="black" d="M1057.38,-148.242C1121.01,-135.834 1217.32,-117.056 1282.09,-104.425"/>
<polygon fill="black" stroke="black" points="1283.07,-107.802 1292.21,-102.453 1281.73,-100.931 1283.07,-107.802"/>
</g>
<!-- nodocadenaSustituida -->
<g id="node17" class="node"><title>nodocadenaSustituida</title>
<ellipse fill="none" stroke="black" cx="1521.95" cy="-90" rx="71.4873" ry="18"/>
<text text-anchor="middle" x="1521.95" y="-86.3" font-family="Times New Roman,serif" font-size="14.00">cadenaSustituida</text>
</g>
<!-- nodoPruebaFuncionesCadena&#45;&gt;nodocadenaSustituida -->
<g id="edge30" class="edge"><title>nodoPruebaFuncionesCadena&#45;&gt;nodocadenaSustituida</title>
<path fill="none" stroke="black" d="M1079.61,-152.993C1170.34,-144.157 1316.04,-128.438 1440.95,-108 1447.18,-106.98 1453.66,-105.809 1460.13,-104.568"/>
<polygon fill="black" stroke="black" points="1461.09,-107.945 1470.22,-102.574 1459.73,-101.078 1461.09,-107.945"/>
</g>
<!-- nodocadenaIzquierda -->
<g id="node18" class="node"><title>nodocadenaIzquierda</title>
<ellipse fill="none" stroke="black" cx="1680.95" cy="-90" rx="69.5877" ry="18"/>
<text text-anchor="middle" x="1680.95" y="-86.3" font-family="Times New Roman,serif" font-size="14.00">cadenaIzquierda</text>
</g>
<!-- nodoPruebaFuncionesCadena&#45;&gt;nodocadenaIzquierda -->
<g id="edge31" class="edge"><title>nodoPruebaFuncionesCadena&#45;&gt;nodocadenaIzquierda</title>
<path fill="none" stroke="black" d="M1087.74,-156.397C1208.24,-149.753 1421.27,-135.179 1601.95,-108 1608.23,-107.055 1614.76,-105.912 1621.26,-104.672"/>
<polygon fill="black" stroke="black" points="1622.27,-108.039 1631.39,-102.656 1620.9,-101.173 1622.27,-108.039"/>
</g>
<!-- nodocadenaDerecha -->
<g id="node19" class="node"><title>nodocadenaDerecha</title>
<ellipse fill="none" stroke="black" cx="750.946" cy="-90" rx="65.7887" ry="18"/>
<text text-anchor="middle" x="750.946" y="-86.3" font-family="Times New Roman,serif" font-size="14.00">cadenaDerecha</text>
</g>
<!-- nodoPruebaFuncionesCadena&#45;&gt;nodocadenaDerecha -->
<g id="edge32" class="edge"><title>nodoPruebaFuncionesCadena&#45;&gt;nodocadenaDerecha</title>
<path fill="none" stroke="black" d="M941.425,-146.326C901.259,-134.659 845.218,-118.382 804.323,-106.504"/>
<polygon fill="black" stroke="black" points="805.113,-103.089 794.534,-103.66 803.161,-109.811 805.113,-103.089"/>
</g>
<!-- nodocadenaDentro -->
<g id="node20" class="node"><title>nodocadenaDentro</title>
<ellipse fill="none" stroke="black" cx="895.946" cy="-90" rx="61.1893" ry="18"/>
<text text-anchor="middle" x="895.946" y="-86.3" font-family="Times New Roman,serif" font-size="14.00">cadenaDentro</text>
</g>
<!-- nodoPruebaFuncionesCadena&#45;&gt;nodocadenaDentro -->
<g id="edge33" class="edge"><title>nodoPruebaFuncionesCadena&#45;&gt;nodocadenaDentro</title>
<path fill="none" stroke="black" d="M969.196,-144.411C956.339,-135.036 940.104,-123.198 926.187,-113.051"/>
<polygon fill="black" stroke="black" points="928.015,-110.052 917.873,-106.988 923.891,-115.708 928.015,-110.052"/>
</g>
<!-- nodocadenaLongitud -->
<g id="node21" class="node"><title>nodocadenaLongitud</title>
<ellipse fill="none" stroke="black" cx="1043.95" cy="-90" rx="68.7879" ry="18"/>
<text text-anchor="middle" x="1043.95" y="-86.3" font-family="Times New Roman,serif" font-size="14.00">cadenaLongitud</text>
</g>
<!-- nodoPruebaFuncionesCadena&#45;&gt;nodocadenaLongitud -->
<g id="edge34" class="edge"><title>nodoPruebaFuncionesCadena&#45;&gt;nodocadenaLongitud</title>
<path fill="none" stroke="black" d="M1004.53,-144.055C1010.79,-135.629 1018.48,-125.28 1025.4,-115.966"/>
<polygon fill="black" stroke="black" points="1028.32,-117.904 1031.47,-107.789 1022.7,-113.729 1028.32,-117.904"/>
</g>
</g>
</svg>
