<?xml version="1.0" encoding="UTF-8" standalone="no"?>
<!DOCTYPE svg PUBLIC "-//W3C//DTD SVG 1.1//EN"
 "http://www.w3.org/Graphics/SVG/1.1/DTD/svg11.dtd">
<!-- Generated by graphviz version 2.38.0 (20140413.2041)
 -->
<!-- Title: G Pages: 1 -->
<svg width="134pt" height="333pt"
 viewBox="0.00 0.00 134.00 333.00" xmlns="http://www.w3.org/2000/svg" xmlns:xlink="http://www.w3.org/1999/xlink">
<g id="graph0" class="graph" transform="scale(1 1) rotate(0) translate(4 329)">
<title>G</title>
<polygon fill="white" stroke="none" points="-4,4 -4,-329 130,-329 130,4 -4,4"/>
<!-- nodo1 -->
<g id="node1" class="node"><title>nodo1</title>
<polygon fill="white" stroke="black" points="63,-325 25.1282,-307 63,-289 100.872,-307 63,-325"/>
<polyline fill="none" stroke="black" points="35.9663,-312.151 35.9663,-301.849 "/>
<polyline fill="none" stroke="black" points="52.1619,-294.151 73.8381,-294.151 "/>
<polyline fill="none" stroke="black" points="90.0337,-301.849 90.0337,-312.151 "/>
<polyline fill="none" stroke="black" points="73.8381,-319.849 52.1619,-319.849 "/>
<text text-anchor="middle" x="63" y="-303.3" font-family="Times New Roman,serif" font-size="14.00">start</text>
</g>
<!-- nodo2 -->
<g id="node2" class="node"><title>nodo2</title>
<ellipse fill="none" stroke="black" cx="63" cy="-235" rx="27" ry="18"/>
</g>
<!-- nodo1&#45;&gt;nodo2 -->
<g id="edge1" class="edge"><title>nodo1&#45;&gt;nodo2</title>
<path fill="none" stroke="black" d="M63,-288.697C63,-280.983 63,-271.712 63,-263.112"/>
<polygon fill="black" stroke="black" points="66.5001,-263.104 63,-253.104 59.5001,-263.104 66.5001,-263.104"/>
</g>
<!-- nodo3 -->
<g id="node3" class="node"><title>nodo3</title>
<ellipse fill="none" stroke="black" cx="27" cy="-163" rx="27" ry="18"/>
</g>
<!-- nodo2&#45;&gt;nodo3 -->
<g id="edge2" class="edge"><title>nodo2&#45;&gt;nodo3</title>
<path fill="none" stroke="black" d="M54.6504,-217.765C50.2885,-209.283 44.8531,-198.714 39.9587,-189.197"/>
<polygon fill="black" stroke="black" points="42.9904,-187.439 35.3043,-180.147 36.7654,-190.641 42.9904,-187.439"/>
</g>
<!-- nodo4 -->
<g id="node4" class="node"><title>nodo4</title>
<ellipse fill="none" stroke="black" cx="99" cy="-163" rx="27" ry="18"/>
</g>
<!-- nodo2&#45;&gt;nodo4 -->
<g id="edge3" class="edge"><title>nodo2&#45;&gt;nodo4</title>
<path fill="none" stroke="black" d="M71.3496,-217.765C75.7115,-209.283 81.1469,-198.714 86.0413,-189.197"/>
<polygon fill="black" stroke="black" points="89.2346,-190.641 90.6957,-180.147 83.0096,-187.439 89.2346,-190.641"/>
</g>
<!-- nodo5 -->
<g id="node5" class="node"><title>nodo5</title>
<ellipse fill="none" stroke="black" cx="63" cy="-91" rx="27" ry="18"/>
</g>
<!-- nodo3&#45;&gt;nodo5 -->
<g id="edge4" class="edge"><title>nodo3&#45;&gt;nodo5</title>
<path fill="none" stroke="black" d="M35.3496,-145.765C39.7115,-137.283 45.1469,-126.714 50.0413,-117.197"/>
<polygon fill="black" stroke="black" points="53.2346,-118.641 54.6957,-108.147 47.0096,-115.439 53.2346,-118.641"/>
</g>
<!-- nodo4&#45;&gt;nodo5 -->
<g id="edge5" class="edge"><title>nodo4&#45;&gt;nodo5</title>
<path fill="none" stroke="black" d="M90.6504,-145.765C86.2885,-137.283 80.8531,-126.714 75.9587,-117.197"/>
<polygon fill="black" stroke="black" points="78.9904,-115.439 71.3043,-108.147 72.7654,-118.641 78.9904,-115.439"/>
</g>
<!-- nodo6 -->
<g id="node6" class="node"><title>nodo6</title>
<polygon fill="white" stroke="black" points="81.5,-37 44.5,-37 44.5,-0 81.5,-0 81.5,-37"/>
<polyline fill="none" stroke="black" points="56.5,-37 44.5,-25 "/>
<polyline fill="none" stroke="black" points="44.5,-12 56.5,-0 "/>
<polyline fill="none" stroke="black" points="69.5,-0 81.5,-12 "/>
<polyline fill="none" stroke="black" points="81.5,-25 69.5,-37 "/>
<text text-anchor="middle" x="63" y="-14.8" font-family="Times New Roman,serif" font-size="14.00">end</text>
</g>
<!-- nodo5&#45;&gt;nodo6 -->
<g id="edge6" class="edge"><title>nodo5&#45;&gt;nodo6</title>
<path fill="none" stroke="black" d="M63,-72.9339C63,-65.2854 63,-56.064 63,-47.4508"/>
<polygon fill="black" stroke="black" points="66.5001,-47.3926 63,-37.3927 59.5001,-47.3927 66.5001,-47.3926"/>
</g>
</g>
</svg>
