<?xml version="1.0" encoding="UTF-8" standalone="no"?>
<!DOCTYPE svg PUBLIC "-//W3C//DTD SVG 1.1//EN"
 "http://www.w3.org/Graphics/SVG/1.1/DTD/svg11.dtd">
<!-- Generated by graphviz version 2.38.0 (20140413.2041)
 -->
<!-- Title: G Pages: 1 -->
<svg width="301pt" height="1125pt"
 viewBox="0.00 0.00 301.00 1125.00" xmlns="http://www.w3.org/2000/svg" xmlns:xlink="http://www.w3.org/1999/xlink">
<g id="graph0" class="graph" transform="scale(1 1) rotate(0) translate(4 1121)">
<title>G</title>
<polygon fill="white" stroke="none" points="-4,4 -4,-1121 297,-1121 297,4 -4,4"/>
<!-- nodo1 -->
<g id="node1" class="node"><title>nodo1</title>
<polygon fill="white" stroke="black" points="63,-1117 25.1282,-1099 63,-1081 100.872,-1099 63,-1117"/>
<polyline fill="none" stroke="black" points="35.9663,-1104.15 35.9663,-1093.85 "/>
<polyline fill="none" stroke="black" points="52.1619,-1086.15 73.8381,-1086.15 "/>
<polyline fill="none" stroke="black" points="90.0337,-1093.85 90.0337,-1104.15 "/>
<polyline fill="none" stroke="black" points="73.8381,-1111.85 52.1619,-1111.85 "/>
<text text-anchor="middle" x="63" y="-1095.3" font-family="Times New Roman,serif" font-size="14.00">start</text>
</g>
<!-- nodo2 -->
<g id="node2" class="node"><title>nodo2</title>
<ellipse fill="none" stroke="black" cx="63" cy="-1027" rx="27" ry="18"/>
</g>
<!-- nodo1&#45;&gt;nodo2 -->
<g id="edge1" class="edge"><title>nodo1&#45;&gt;nodo2</title>
<path fill="none" stroke="black" d="M63,-1080.7C63,-1072.98 63,-1063.71 63,-1055.11"/>
<polygon fill="black" stroke="black" points="66.5001,-1055.1 63,-1045.1 59.5001,-1055.1 66.5001,-1055.1"/>
</g>
<!-- nodo3 -->
<g id="node3" class="node"><title>nodo3</title>
<ellipse fill="none" stroke="black" cx="27" cy="-955" rx="27" ry="18"/>
</g>
<!-- nodo2&#45;&gt;nodo3 -->
<g id="edge2" class="edge"><title>nodo2&#45;&gt;nodo3</title>
<path fill="none" stroke="black" d="M54.6504,-1009.76C50.2885,-1001.28 44.8531,-990.714 39.9587,-981.197"/>
<polygon fill="black" stroke="black" points="42.9904,-979.439 35.3043,-972.147 36.7654,-982.641 42.9904,-979.439"/>
</g>
<!-- nodo4 -->
<g id="node4" class="node"><title>nodo4</title>
<ellipse fill="none" stroke="black" cx="99" cy="-955" rx="27" ry="18"/>
</g>
<!-- nodo2&#45;&gt;nodo4 -->
<g id="edge3" class="edge"><title>nodo2&#45;&gt;nodo4</title>
<path fill="none" stroke="black" d="M71.3496,-1009.76C75.7115,-1001.28 81.1469,-990.714 86.0413,-981.197"/>
<polygon fill="black" stroke="black" points="89.2346,-982.641 90.6957,-972.147 83.0096,-979.439 89.2346,-982.641"/>
</g>
<!-- nodo5 -->
<g id="node5" class="node"><title>nodo5</title>
<ellipse fill="none" stroke="black" cx="63" cy="-883" rx="27" ry="18"/>
</g>
<!-- nodo3&#45;&gt;nodo5 -->
<g id="edge4" class="edge"><title>nodo3&#45;&gt;nodo5</title>
<path fill="none" stroke="black" d="M35.3496,-937.765C39.7115,-929.283 45.1469,-918.714 50.0413,-909.197"/>
<polygon fill="black" stroke="black" points="53.2346,-910.641 54.6957,-900.147 47.0096,-907.439 53.2346,-910.641"/>
</g>
<!-- nodo4&#45;&gt;nodo5 -->
<g id="edge5" class="edge"><title>nodo4&#45;&gt;nodo5</title>
<path fill="none" stroke="black" d="M90.6504,-937.765C86.2885,-929.283 80.8531,-918.714 75.9587,-909.197"/>
<polygon fill="black" stroke="black" points="78.9904,-907.439 71.3043,-900.147 72.7654,-910.641 78.9904,-907.439"/>
</g>
<!-- nodo6 -->
<g id="node6" class="node"><title>nodo6</title>
<ellipse fill="none" stroke="black" cx="63" cy="-811" rx="27" ry="18"/>
</g>
<!-- nodo5&#45;&gt;nodo6 -->
<g id="edge6" class="edge"><title>nodo5&#45;&gt;nodo6</title>
<path fill="none" stroke="black" d="M63,-864.697C63,-856.983 63,-847.712 63,-839.112"/>
<polygon fill="black" stroke="black" points="66.5001,-839.104 63,-829.104 59.5001,-839.104 66.5001,-839.104"/>
</g>
<!-- nodo7 -->
<g id="node7" class="node"><title>nodo7</title>
<ellipse fill="none" stroke="black" cx="36" cy="-739" rx="27" ry="18"/>
</g>
<!-- nodo6&#45;&gt;nodo7 -->
<g id="edge7" class="edge"><title>nodo6&#45;&gt;nodo7</title>
<path fill="none" stroke="black" d="M56.6014,-793.411C53.4864,-785.335 49.6663,-775.431 46.1654,-766.355"/>
<polygon fill="black" stroke="black" points="49.4045,-765.027 42.5403,-756.956 42.8735,-767.546 49.4045,-765.027"/>
</g>
<!-- nodo8 -->
<g id="node8" class="node"><title>nodo8</title>
<ellipse fill="none" stroke="black" cx="63" cy="-667" rx="27" ry="18"/>
</g>
<!-- nodo6&#45;&gt;nodo8 -->
<g id="edge8" class="edge"><title>nodo6&#45;&gt;nodo8</title>
<path fill="none" stroke="black" d="M66.6538,-792.908C68.6758,-782.569 70.9808,-769.09 72,-757 73.3441,-741.057 73.3441,-736.943 72,-721 71.2834,-712.499 69.9311,-703.312 68.4884,-695.012"/>
<polygon fill="black" stroke="black" points="71.9142,-694.289 66.6538,-685.092 65.0309,-695.562 71.9142,-694.289"/>
</g>
<!-- nodo7&#45;&gt;nodo8 -->
<g id="edge9" class="edge"><title>nodo7&#45;&gt;nodo8</title>
<path fill="none" stroke="black" d="M42.3986,-721.411C45.5136,-713.335 49.3337,-703.431 52.8346,-694.355"/>
<polygon fill="black" stroke="black" points="56.1265,-695.546 56.4597,-684.956 49.5955,-693.027 56.1265,-695.546"/>
</g>
<!-- nodo9 -->
<g id="node9" class="node"><title>nodo9</title>
<ellipse fill="none" stroke="black" cx="63" cy="-595" rx="27" ry="18"/>
</g>
<!-- nodo8&#45;&gt;nodo9 -->
<g id="edge10" class="edge"><title>nodo8&#45;&gt;nodo9</title>
<path fill="none" stroke="black" d="M63,-648.697C63,-640.983 63,-631.712 63,-623.112"/>
<polygon fill="black" stroke="black" points="66.5001,-623.104 63,-613.104 59.5001,-623.104 66.5001,-623.104"/>
</g>
<!-- nodo10 -->
<g id="node10" class="node"><title>nodo10</title>
<ellipse fill="none" stroke="black" cx="63" cy="-523" rx="27" ry="18"/>
</g>
<!-- nodo9&#45;&gt;nodo10 -->
<g id="edge11" class="edge"><title>nodo9&#45;&gt;nodo10</title>
<path fill="none" stroke="black" d="M57.1601,-577.411C56.2975,-569.507 56.0481,-559.852 56.4119,-550.935"/>
<polygon fill="black" stroke="black" points="59.9033,-551.179 57.1206,-540.956 52.9209,-550.683 59.9033,-551.179"/>
</g>
<!-- nodo11 -->
<g id="node11" class="node"><title>nodo11</title>
<ellipse fill="none" stroke="black" cx="135" cy="-523" rx="27" ry="18"/>
</g>
<!-- nodo9&#45;&gt;nodo11 -->
<g id="edge13" class="edge"><title>nodo9&#45;&gt;nodo11</title>
<path fill="none" stroke="black" d="M77.5703,-579.834C87.7499,-569.938 101.524,-556.546 113.031,-545.359"/>
<polygon fill="black" stroke="black" points="115.474,-547.865 120.204,-538.385 110.595,-542.846 115.474,-547.865"/>
</g>
<!-- nodo10&#45;&gt;nodo9 -->
<g id="edge12" class="edge"><title>nodo10&#45;&gt;nodo9</title>
<path fill="none" stroke="black" d="M68.8794,-540.956C69.7139,-548.827 69.9485,-558.374 69.5831,-567.187"/>
<polygon fill="black" stroke="black" points="66.0742,-567.184 68.8399,-577.411 73.0558,-567.691 66.0742,-567.184"/>
</g>
<!-- nodo12 -->
<g id="node12" class="node"><title>nodo12</title>
<ellipse fill="none" stroke="black" cx="135" cy="-451" rx="27" ry="18"/>
</g>
<!-- nodo11&#45;&gt;nodo12 -->
<g id="edge14" class="edge"><title>nodo11&#45;&gt;nodo12</title>
<path fill="none" stroke="black" d="M135,-504.697C135,-496.983 135,-487.712 135,-479.112"/>
<polygon fill="black" stroke="black" points="138.5,-479.104 135,-469.104 131.5,-479.104 138.5,-479.104"/>
</g>
<!-- nodo13 -->
<g id="node13" class="node"><title>nodo13</title>
<ellipse fill="none" stroke="black" cx="135" cy="-379" rx="27" ry="18"/>
</g>
<!-- nodo12&#45;&gt;nodo13 -->
<g id="edge15" class="edge"><title>nodo12&#45;&gt;nodo13</title>
<path fill="none" stroke="black" d="M129.16,-433.411C128.297,-425.507 128.048,-415.852 128.412,-406.935"/>
<polygon fill="black" stroke="black" points="131.903,-407.179 129.121,-396.956 124.921,-406.683 131.903,-407.179"/>
</g>
<!-- nodo14 -->
<g id="node14" class="node"><title>nodo14</title>
<ellipse fill="none" stroke="black" cx="207" cy="-379" rx="27" ry="18"/>
</g>
<!-- nodo12&#45;&gt;nodo14 -->
<g id="edge17" class="edge"><title>nodo12&#45;&gt;nodo14</title>
<path fill="none" stroke="black" d="M149.57,-435.834C159.75,-425.938 173.524,-412.546 185.031,-401.359"/>
<polygon fill="black" stroke="black" points="187.474,-403.865 192.204,-394.385 182.595,-398.846 187.474,-403.865"/>
</g>
<!-- nodo13&#45;&gt;nodo12 -->
<g id="edge16" class="edge"><title>nodo13&#45;&gt;nodo12</title>
<path fill="none" stroke="black" d="M140.879,-396.956C141.714,-404.827 141.948,-414.374 141.583,-423.187"/>
<polygon fill="black" stroke="black" points="138.074,-423.184 140.84,-433.411 145.056,-423.691 138.074,-423.184"/>
</g>
<!-- nodo15 -->
<g id="node15" class="node"><title>nodo15</title>
<ellipse fill="none" stroke="black" cx="207" cy="-307" rx="27" ry="18"/>
</g>
<!-- nodo14&#45;&gt;nodo15 -->
<g id="edge18" class="edge"><title>nodo14&#45;&gt;nodo15</title>
<path fill="none" stroke="black" d="M207,-360.697C207,-352.983 207,-343.712 207,-335.112"/>
<polygon fill="black" stroke="black" points="210.5,-335.104 207,-325.104 203.5,-335.104 210.5,-335.104"/>
</g>
<!-- nodo16 -->
<g id="node16" class="node"><title>nodo16</title>
<ellipse fill="none" stroke="black" cx="152" cy="-235" rx="27" ry="18"/>
</g>
<!-- nodo15&#45;&gt;nodo16 -->
<g id="edge19" class="edge"><title>nodo15&#45;&gt;nodo16</title>
<path fill="none" stroke="black" d="M195.066,-290.811C187.786,-281.546 178.337,-269.52 170.146,-259.094"/>
<polygon fill="black" stroke="black" points="172.841,-256.86 163.911,-251.159 167.337,-261.185 172.841,-256.86"/>
</g>
<!-- nodo23 -->
<g id="node23" class="node"><title>nodo23</title>
<ellipse fill="none" stroke="black" cx="266" cy="-235" rx="27" ry="18"/>
</g>
<!-- nodo15&#45;&gt;nodo23 -->
<g id="edge21" class="edge"><title>nodo15&#45;&gt;nodo23</title>
<path fill="none" stroke="black" d="M219.802,-290.811C227.611,-281.546 237.747,-269.52 246.535,-259.094"/>
<polygon fill="black" stroke="black" points="249.454,-261.061 253.223,-251.159 244.102,-256.55 249.454,-261.061"/>
</g>
<!-- nodo17 -->
<g id="node17" class="node"><title>nodo17</title>
<ellipse fill="none" stroke="black" cx="97" cy="-162.5" rx="27" ry="18"/>
</g>
<!-- nodo16&#45;&gt;nodo17 -->
<g id="edge22" class="edge"><title>nodo16&#45;&gt;nodo17</title>
<path fill="none" stroke="black" d="M140.066,-218.703C132.786,-209.372 123.337,-197.26 115.146,-186.759"/>
<polygon fill="black" stroke="black" points="117.822,-184.499 108.911,-178.768 112.302,-188.805 117.822,-184.499"/>
</g>
<!-- nodo22 -->
<g id="node22" class="node"><title>nodo22</title>
<ellipse fill="none" stroke="black" cx="207" cy="-162.5" rx="27" ry="18"/>
</g>
<!-- nodo16&#45;&gt;nodo22 -->
<g id="edge24" class="edge"><title>nodo16&#45;&gt;nodo22</title>
<path fill="none" stroke="black" d="M163.934,-218.703C171.214,-209.372 180.663,-197.26 188.854,-186.759"/>
<polygon fill="black" stroke="black" points="191.698,-188.805 195.089,-178.768 186.178,-184.499 191.698,-188.805"/>
</g>
<!-- nodo18 -->
<g id="node18" class="node"><title>nodo18</title>
<ellipse fill="none" stroke="black" cx="34" cy="-90" rx="27" ry="18"/>
</g>
<!-- nodo17&#45;&gt;nodo18 -->
<g id="edge25" class="edge"><title>nodo17&#45;&gt;nodo18</title>
<path fill="none" stroke="black" d="M83.6393,-146.549C75.0362,-136.921 63.6946,-124.23 54.0244,-113.408"/>
<polygon fill="black" stroke="black" points="56.6146,-111.054 47.3414,-105.93 51.395,-115.718 56.6146,-111.054"/>
</g>
<!-- nodo21 -->
<g id="node21" class="node"><title>nodo21</title>
<ellipse fill="none" stroke="black" cx="152" cy="-90" rx="27" ry="18"/>
</g>
<!-- nodo17&#45;&gt;nodo21 -->
<g id="edge27" class="edge"><title>nodo17&#45;&gt;nodo21</title>
<path fill="none" stroke="black" d="M108.934,-146.203C116.214,-136.872 125.663,-124.76 133.854,-114.259"/>
<polygon fill="black" stroke="black" points="136.698,-116.305 140.089,-106.268 131.178,-111.999 136.698,-116.305"/>
</g>
<!-- nodo19 -->
<g id="node19" class="node"><title>nodo19</title>
<ellipse fill="none" stroke="black" cx="30" cy="-18" rx="27" ry="18"/>
</g>
<!-- nodo18&#45;&gt;nodo19 -->
<g id="edge28" class="edge"><title>nodo18&#45;&gt;nodo19</title>
<path fill="none" stroke="black" d="M27.2121,-72.411C25.9122,-64.5929 25.1142,-55.0615 24.956,-46.2262"/>
<polygon fill="black" stroke="black" points="28.4591,-46.0009 25.0895,-35.9562 21.4597,-45.9098 28.4591,-46.0009"/>
</g>
<!-- nodo20 -->
<g id="node20" class="node"><title>nodo20</title>
<ellipse fill="none" stroke="black" cx="102" cy="-18" rx="27" ry="18"/>
</g>
<!-- nodo18&#45;&gt;nodo20 -->
<g id="edge30" class="edge"><title>nodo18&#45;&gt;nodo20</title>
<path fill="none" stroke="black" d="M48.0896,-74.496C57.5719,-64.7348 70.2443,-51.6897 80.9201,-40.6999"/>
<polygon fill="black" stroke="black" points="83.471,-43.097 87.9284,-33.4855 78.45,-38.2195 83.471,-43.097"/>
</g>
<!-- nodo19&#45;&gt;nodo18 -->
<g id="edge29" class="edge"><title>nodo19&#45;&gt;nodo18</title>
<path fill="none" stroke="black" d="M36.8209,-35.789C38.105,-43.5912 38.8915,-53.067 39.0453,-61.8479"/>
<polygon fill="black" stroke="black" points="35.543,-62.0094 38.9099,-72.055 42.5423,-62.1023 35.543,-62.0094"/>
</g>
<!-- nodo20&#45;&gt;nodo17 -->
<g id="edge26" class="edge"><title>nodo20&#45;&gt;nodo17</title>
<path fill="none" stroke="black" d="M101.395,-36.2498C100.541,-60.5702 98.9758,-105.19 97.962,-134.083"/>
<polygon fill="black" stroke="black" points="94.456,-134.195 97.6031,-144.311 101.452,-134.44 94.456,-134.195"/>
</g>
<!-- nodo21&#45;&gt;nodo16 -->
<g id="edge23" class="edge"><title>nodo21&#45;&gt;nodo16</title>
<path fill="none" stroke="black" d="M152,-108.31C152,-132.716 152,-177.492 152,-206.487"/>
<polygon fill="black" stroke="black" points="148.5,-206.751 152,-216.751 155.5,-206.751 148.5,-206.751"/>
</g>
<!-- nodo22&#45;&gt;nodo15 -->
<g id="edge20" class="edge"><title>nodo22&#45;&gt;nodo15</title>
<path fill="none" stroke="black" d="M207,-180.75C207,-205.07 207,-249.69 207,-278.583"/>
<polygon fill="black" stroke="black" points="203.5,-278.811 207,-288.811 210.5,-278.811 203.5,-278.811"/>
</g>
<!-- nodo24 -->
<g id="node24" class="node"><title>nodo24</title>
<polygon fill="white" stroke="black" points="289.5,-181 252.5,-181 252.5,-144 289.5,-144 289.5,-181"/>
<polyline fill="none" stroke="black" points="264.5,-181 252.5,-169 "/>
<polyline fill="none" stroke="black" points="252.5,-156 264.5,-144 "/>
<polyline fill="none" stroke="black" points="277.5,-144 289.5,-156 "/>
<polyline fill="none" stroke="black" points="289.5,-169 277.5,-181 "/>
<text text-anchor="middle" x="271" y="-158.8" font-family="Times New Roman,serif" font-size="14.00">end</text>
</g>
<!-- nodo23&#45;&gt;nodo24 -->
<g id="edge31" class="edge"><title>nodo23&#45;&gt;nodo24</title>
<path fill="none" stroke="black" d="M267.21,-216.934C267.753,-209.285 268.407,-200.064 269.018,-191.451"/>
<polygon fill="black" stroke="black" points="272.515,-191.615 269.731,-181.393 265.532,-191.12 272.515,-191.615"/>
</g>
</g>
</svg>
