<?xml version="1.0" encoding="UTF-8" standalone="no"?>
<!DOCTYPE svg PUBLIC "-//W3C//DTD SVG 1.1//EN"
 "http://www.w3.org/Graphics/SVG/1.1/DTD/svg11.dtd">
<!-- Generated by graphviz version 2.38.0 (20140413.2041)
 -->
<!-- Title: G Pages: 1 -->
<svg width="83pt" height="117pt"
 viewBox="0.00 0.00 83.37 117.00" xmlns="http://www.w3.org/2000/svg" xmlns:xlink="http://www.w3.org/1999/xlink">
<g id="graph0" class="graph" transform="scale(1 1) rotate(0) translate(4 113)">
<title>G</title>
<polygon fill="white" stroke="none" points="-4,4 -4,-113 79.3709,-113 79.3709,4 -4,4"/>
<!-- nodo1 -->
<g id="node1" class="node"><title>nodo1</title>
<polygon fill="white" stroke="black" points="37.6854,-109 -0.186365,-91 37.6854,-73 75.5573,-91 37.6854,-109"/>
<polyline fill="none" stroke="black" points="10.6518,-96.1512 10.6518,-85.8488 "/>
<polyline fill="none" stroke="black" points="26.8473,-78.1512 48.5236,-78.1512 "/>
<polyline fill="none" stroke="black" points="64.7191,-85.8488 64.7191,-96.1512 "/>
<polyline fill="none" stroke="black" points="48.5236,-103.849 26.8473,-103.849 "/>
<text text-anchor="middle" x="37.6854" y="-87.3" font-family="Times New Roman,serif" font-size="14.00">start</text>
</g>
<!-- nodo2 -->
<g id="node2" class="node"><title>nodo2</title>
<polygon fill="white" stroke="black" points="56.1854,-37 19.1854,-37 19.1854,-0 56.1854,-0 56.1854,-37"/>
<polyline fill="none" stroke="black" points="31.1854,-37 19.1854,-25 "/>
<polyline fill="none" stroke="black" points="19.1854,-12 31.1854,-0 "/>
<polyline fill="none" stroke="black" points="44.1854,-0 56.1854,-12 "/>
<polyline fill="none" stroke="black" points="56.1854,-25 44.1854,-37 "/>
<text text-anchor="middle" x="37.6854" y="-14.8" font-family="Times New Roman,serif" font-size="14.00">end</text>
</g>
<!-- nodo1&#45;&gt;nodo2 -->
<g id="edge1" class="edge"><title>nodo1&#45;&gt;nodo2</title>
<path fill="none" stroke="black" d="M37.6854,-72.9339C37.6854,-65.2854 37.6854,-56.064 37.6854,-47.4508"/>
<polygon fill="black" stroke="black" points="41.1855,-47.3926 37.6854,-37.3927 34.1855,-47.3927 41.1855,-47.3926"/>
</g>
</g>
</svg>
