<?xml version="1.0" encoding="UTF-8" standalone="no"?>
<!DOCTYPE svg PUBLIC "-//W3C//DTD SVG 1.1//EN"
 "http://www.w3.org/Graphics/SVG/1.1/DTD/svg11.dtd">
<!-- Generated by graphviz version 2.38.0 (20140413.2041)
 -->
<!-- Title: G Pages: 1 -->
<svg width="145pt" height="261pt"
 viewBox="0.00 0.00 144.69 261.00" xmlns="http://www.w3.org/2000/svg" xmlns:xlink="http://www.w3.org/1999/xlink">
<g id="graph0" class="graph" transform="scale(1 1) rotate(0) translate(4 257)">
<title>G</title>
<polygon fill="white" stroke="none" points="-4,4 -4,-257 140.685,-257 140.685,4 -4,4"/>
<!-- nodo1 -->
<g id="node1" class="node"><title>nodo1</title>
<polygon fill="white" stroke="black" points="37.6854,-253 -0.186365,-235 37.6854,-217 75.5573,-235 37.6854,-253"/>
<polyline fill="none" stroke="black" points="10.6518,-240.151 10.6518,-229.849 "/>
<polyline fill="none" stroke="black" points="26.8473,-222.151 48.5236,-222.151 "/>
<polyline fill="none" stroke="black" points="64.7191,-229.849 64.7191,-240.151 "/>
<polyline fill="none" stroke="black" points="48.5236,-247.849 26.8473,-247.849 "/>
<text text-anchor="middle" x="37.6854" y="-231.3" font-family="Times New Roman,serif" font-size="14.00">start</text>
</g>
<!-- nodo2 -->
<g id="node2" class="node"><title>nodo2</title>
<ellipse fill="none" stroke="black" cx="37.6854" cy="-163" rx="27" ry="18"/>
</g>
<!-- nodo1&#45;&gt;nodo2 -->
<g id="edge1" class="edge"><title>nodo1&#45;&gt;nodo2</title>
<path fill="none" stroke="black" d="M37.6854,-216.697C37.6854,-208.983 37.6854,-199.712 37.6854,-191.112"/>
<polygon fill="black" stroke="black" points="41.1855,-191.104 37.6854,-181.104 34.1855,-191.104 41.1855,-191.104"/>
</g>
<!-- nodo3 -->
<g id="node3" class="node"><title>nodo3</title>
<ellipse fill="none" stroke="black" cx="37.6854" cy="-91" rx="27" ry="18"/>
</g>
<!-- nodo2&#45;&gt;nodo3 -->
<g id="edge2" class="edge"><title>nodo2&#45;&gt;nodo3</title>
<path fill="none" stroke="black" d="M31.8455,-145.411C30.9829,-137.507 30.7335,-127.852 31.0973,-118.935"/>
<polygon fill="black" stroke="black" points="34.5887,-119.179 31.806,-108.956 27.6063,-118.683 34.5887,-119.179"/>
</g>
<!-- nodo4 -->
<g id="node4" class="node"><title>nodo4</title>
<ellipse fill="none" stroke="black" cx="109.685" cy="-91" rx="27" ry="18"/>
</g>
<!-- nodo2&#45;&gt;nodo4 -->
<g id="edge4" class="edge"><title>nodo2&#45;&gt;nodo4</title>
<path fill="none" stroke="black" d="M52.2557,-147.834C62.4354,-137.938 76.2093,-124.546 87.7161,-113.359"/>
<polygon fill="black" stroke="black" points="90.1595,-115.865 94.8897,-106.385 85.28,-110.846 90.1595,-115.865"/>
</g>
<!-- nodo3&#45;&gt;nodo2 -->
<g id="edge3" class="edge"><title>nodo3&#45;&gt;nodo2</title>
<path fill="none" stroke="black" d="M43.5649,-108.956C44.3994,-116.827 44.6339,-126.374 44.2686,-135.187"/>
<polygon fill="black" stroke="black" points="40.7597,-135.184 43.5254,-145.411 47.7412,-135.691 40.7597,-135.184"/>
</g>
<!-- nodo5 -->
<g id="node5" class="node"><title>nodo5</title>
<polygon fill="white" stroke="black" points="128.185,-37 91.1854,-37 91.1854,-0 128.185,-0 128.185,-37"/>
<polyline fill="none" stroke="black" points="103.185,-37 91.1854,-25 "/>
<polyline fill="none" stroke="black" points="91.1854,-12 103.185,-0 "/>
<polyline fill="none" stroke="black" points="116.185,-0 128.185,-12 "/>
<polyline fill="none" stroke="black" points="128.185,-25 116.185,-37 "/>
<text text-anchor="middle" x="109.685" y="-14.8" font-family="Times New Roman,serif" font-size="14.00">end</text>
</g>
<!-- nodo4&#45;&gt;nodo5 -->
<g id="edge5" class="edge"><title>nodo4&#45;&gt;nodo5</title>
<path fill="none" stroke="black" d="M109.685,-72.9339C109.685,-65.2854 109.685,-56.064 109.685,-47.4508"/>
<polygon fill="black" stroke="black" points="113.186,-47.3926 109.685,-37.3927 106.186,-47.3927 113.186,-47.3926"/>
</g>
</g>
</svg>
